<?plantuml 1.2026.2?><svg xmlns="http://www.w3.org/2000/svg" xmlns:xlink="http://www.w3.org/1999/xlink" contentStyleType="text/css" data-diagram-type="DESCRIPTION" height="989px" preserveAspectRatio="none" style="width:1637px;height:989px;background:#FFFFFF;" version="1.1" viewBox="0 0 1637 989" width="1637px" zoomAndPan="magnify"><title>04 &#32452;&#20214;&#22270;&#65306;&#22235;&#23618;&#26550;&#26500;&#19982;&#22806;&#37096;&#36164;&#28304;</title><defs/><g><g class="title" data-source-line="6"><text fill="#000000" font-family="sans-serif" font-size="14" font-weight="bold" lengthAdjust="spacing" textLength="201.6555" x="710.9072" y="24.9659">04 &#32452;&#20214;&#22270;&#65306;&#22235;&#23618;&#26550;&#26500;&#19982;&#22806;&#37096;&#36164;&#28304;</text></g><!--cluster src/client--><g class="cluster" data-qualified-name="src.client" data-source-line="12" id="ent0002"><path d="M8.5,104.3779 L56.2399,104.3779 A3.75,3.75 0 0 1 58.7399,106.8779 L65.7399,123.9979 L1203.6,123.9979 A2.5,2.5 0 0 1 1206.1,126.4979 L1206.1,856.8779 A2.5,2.5 0 0 1 1203.6,859.3779 L8.5,859.3779 A2.5,2.5 0 0 1 6,856.8779 L6,106.8779 A2.5,2.5 0 0 1 8.5,104.3779" fill="none" style="stroke:#000000;stroke-width:1.5;"/><line style="stroke:#000000;stroke-width:1.5;" x1="6" x2="65.7399" y1="123.9979" y2="123.9979"/><text fill="#000000" font-family="sans-serif" font-size="10" font-weight="bold" lengthAdjust="spacing" textLength="46.7399" x="10" y="117.0679">src/client</text></g><!--cluster QML ???--><g class="cluster" data-qualified-name="src.client.QML ..." data-source-line="14" id="ent0004"><path d="M216,144.3779 L272.5299,144.3779 A3.75,3.75 0 0 1 275.0299,146.8779 L282.0299,163.9979 L807.72,163.9979 A2.5,2.5 0 0 1 810.22,166.4979 L810.22,305.8779 A2.5,2.5 0 0 1 807.72,308.3779 L216,308.3779 A2.5,2.5 0 0 1 213.5,305.8779 L213.5,146.8779 A2.5,2.5 0 0 1 216,144.3779" fill="none" style="stroke:#000000;stroke-width:1.5;"/><line style="stroke:#000000;stroke-width:1.5;" x1="213.5" x2="282.0299" y1="163.9979" y2="163.9979"/><text fill="#000000" font-family="sans-serif" font-size="10" font-weight="bold" lengthAdjust="spacing" textLength="55.5299" x="217.5" y="157.0679">QML &#34920;&#29616;&#23618;</text></g><!--cluster ?????--><g class="cluster" data-qualified-name="src.client......" data-source-line="19" id="ent0008"><path d="M423.85,332.3779 L474.8499,332.3779 A3.75,3.75 0 0 1 477.3499,334.8779 L484.3499,351.9979 L1003.68,351.9979 A2.5,2.5 0 0 1 1006.18,354.4979 L1006.18,575.8779 A2.5,2.5 0 0 1 1003.68,578.3779 L423.85,578.3779 A2.5,2.5 0 0 1 421.35,575.8779 L421.35,334.8779 A2.5,2.5 0 0 1 423.85,332.3779" fill="none" style="stroke:#000000;stroke-width:1.5;"/><line style="stroke:#000000;stroke-width:1.5;" x1="421.35" x2="484.3499" y1="351.9979" y2="351.9979"/><text fill="#000000" font-family="sans-serif" font-size="10" font-weight="bold" lengthAdjust="spacing" textLength="49.9999" x="425.35" y="345.0679">&#24212;&#29992;&#36923;&#36753;&#23618;</text></g><!--cluster ???--><g class="cluster" data-qualified-name="src.client...." data-source-line="26" id="ent0014"><path d="M869.99,602.3779 L900.99,602.3779 A3.75,3.75 0 0 1 903.49,604.8779 L910.49,621.9979 L1179.6,621.9979 A2.5,2.5 0 0 1 1182.1,624.4979 L1182.1,832.8779 A2.5,2.5 0 0 1 1179.6,835.3779 L869.99,835.3779 A2.5,2.5 0 0 1 867.49,832.8779 L867.49,604.8779 A2.5,2.5 0 0 1 869.99,602.3779" fill="none" style="stroke:#000000;stroke-width:1.5;"/><line style="stroke:#000000;stroke-width:1.5;" x1="867.49" x2="910.49" y1="621.9979" y2="621.9979"/><text fill="#000000" font-family="sans-serif" font-size="10" font-weight="bold" lengthAdjust="spacing" textLength="30" x="871.49" y="615.0679">&#39046;&#22495;&#23618;</text></g><!--cluster src/shared--><g class="cluster" data-qualified-name="src.shared" data-source-line="34" id="ent0019"><path d="M1360.64,777.3779 L1414.7099,777.3779 A3.75,3.75 0 0 1 1417.2099,779.8779 L1424.2099,796.9979 L1627.97,796.9979 A2.5,2.5 0 0 1 1630.47,799.4979 L1630.47,979.8779 A2.5,2.5 0 0 1 1627.97,982.3779 L1360.64,982.3779 A2.5,2.5 0 0 1 1358.14,979.8779 L1358.14,779.8779 A2.5,2.5 0 0 1 1360.64,777.3779" fill="none" style="stroke:#000000;stroke-width:1.5;"/><line style="stroke:#000000;stroke-width:1.5;" x1="1358.14" x2="1424.2099" y1="796.9979" y2="796.9979"/><text fill="#000000" font-family="sans-serif" font-size="10" font-weight="bold" lengthAdjust="spacing" textLength="53.0699" x="1362.14" y="790.0679">src/shared</text></g><!--entity MainCpp--><g class="entity" data-qualified-name="src.client.MainCpp" data-source-line="13" id="ent0003"><rect fill="#F1F1F1" height="33.62" rx="2.5" ry="2.5" style="stroke:#181818;stroke-width:0.5;" width="63.5" x="22" y="446.5679"/><text fill="#000000" font-family="sans-serif" font-size="10" lengthAdjust="spacing" textLength="43.5" x="32" y="467.2579">main.cpp</text></g><!--entity MainQml--><g class="entity" data-qualified-name="src.client.QML ....MainQml" data-source-line="15" id="ent0005"><rect fill="#F1F1F1" height="33.62" rx="2.5" ry="2.5" style="stroke:#181818;stroke-width:0.5;" width="64.2" x="229.5" y="258.5679"/><text fill="#000000" font-family="sans-serif" font-size="10" lengthAdjust="spacing" textLength="44.2" x="239.5" y="279.2579">Main.qml</text></g><!--entity Ui--><g class="entity" data-qualified-name="src.client.QML ....Ui" data-source-line="16" id="ent0006"><rect fill="#F1F1F1" height="115.3399" rx="2.5" ry="2.5" style="stroke:#181818;stroke-width:0.5;" width="129.3999" x="423.7" y="176.7079"/><text fill="#000000" font-family="sans-serif" font-size="10" lengthAdjust="spacing" textLength="12.48" x="433.7" y="197.3979">ui/</text><text fill="#000000" font-family="sans-serif" font-size="10" lengthAdjust="spacing" textLength="74.0099" x="433.7" y="211.0179">DeviceCard.qml</text><text fill="#000000" font-family="sans-serif" font-size="10" lengthAdjust="spacing" textLength="80.5199" x="433.7" y="224.6379">PeerListView.qml</text><text fill="#000000" font-family="sans-serif" font-size="10" lengthAdjust="spacing" textLength="109.3999" x="433.7" y="238.2579">DeviceSessionView.qml</text><text fill="#000000" font-family="sans-serif" font-size="10" lengthAdjust="spacing" textLength="82.42" x="433.7" y="251.8779">AcceptDialog.qml</text><text fill="#000000" font-family="sans-serif" font-size="10" lengthAdjust="spacing" textLength="89.0799" x="433.7" y="265.4978">SettingsDialog.qml</text><text fill="#000000" font-family="sans-serif" font-size="10" lengthAdjust="spacing" textLength="103.7499" x="433.7" y="279.1178">TransferTaskCard.qml</text></g><!--entity Utils--><g class="entity" data-qualified-name="src.client.QML ....Utils" data-source-line="17" id="ent0007"><rect fill="#F1F1F1" height="60.86" rx="2.5" ry="2.5" style="stroke:#181818;stroke-width:0.5;" width="84.86" x="709.36" y="203.9479"/><text fill="#000000" font-family="sans-serif" font-size="10" lengthAdjust="spacing" textLength="23.46" x="719.36" y="224.6379">utils/</text><text fill="#000000" font-family="sans-serif" font-size="10" lengthAdjust="spacing" textLength="32.47" x="719.36" y="238.2579">Style.js</text><text fill="#000000" font-family="sans-serif" font-size="10" lengthAdjust="spacing" textLength="64.86" x="719.36" y="251.8779">FormatUtils.js</text></g><!--entity App--><g class="entity" data-qualified-name="src.client.......App" data-source-line="20" id="ent0009"><rect fill="#F1F1F1" height="47.24" rx="2.5" ry="2.5" style="stroke:#181818;stroke-width:0.5;" width="102.0899" x="437.35" y="364.7579"/><text fill="#000000" font-family="sans-serif" font-size="10" lengthAdjust="spacing" textLength="65.9599" x="447.35" y="385.4479">AppController</text><text fill="#000000" font-family="sans-serif" font-size="10" lengthAdjust="spacing" textLength="82.0899" x="447.35" y="399.0679">QML_SINGLETON</text></g><!--entity Tsm--><g class="entity" data-qualified-name="src.client.......Tsm" data-source-line="21" id="ent0010"><rect fill="#F1F1F1" height="33.62" rx="2.5" ry="2.5" style="stroke:#181818;stroke-width:0.5;" width="137.3899" x="683.1" y="528.5679"/><text fill="#000000" font-family="sans-serif" font-size="10" lengthAdjust="spacing" textLength="117.3899" x="693.1" y="549.2579">TransferSessionManager</text></g><!--entity Config--><g class="entity" data-qualified-name="src.client.......Config" data-source-line="22" id="ent0011"><rect fill="#F1F1F1" height="47.24" rx="2.5" ry="2.5" style="stroke:#181818;stroke-width:0.5;" width="102.0899" x="888.09" y="369.7579"/><text fill="#000000" font-family="sans-serif" font-size="10" lengthAdjust="spacing" textLength="73.1099" x="898.09" y="390.4479">ConfigManager</text><text fill="#000000" font-family="sans-serif" font-size="10" lengthAdjust="spacing" textLength="82.0899" x="898.09" y="404.0679">QML_SINGLETON</text></g><!--entity Dir--><g class="entity" data-qualified-name="src.client.......Dir" data-source-line="23" id="ent0012"><rect fill="#F1F1F1" height="33.62" rx="2.5" ry="2.5" style="stroke:#181818;stroke-width:0.5;" width="77.09" x="449.85" y="446.5679"/><text fill="#000000" font-family="sans-serif" font-size="10" lengthAdjust="spacing" textLength="57.09" x="459.85" y="467.2579">DirSerializer</text></g><!--entity Logger--><g class="entity" data-qualified-name="src.client.......Logger" data-source-line="24" id="ent0013"><rect fill="#F1F1F1" height="47.24" rx="2.5" ry="2.5" style="stroke:#181818;stroke-width:0.5;" width="63.76" x="456.52" y="514.7579"/><text fill="#000000" font-family="sans-serif" font-size="10" lengthAdjust="spacing" textLength="33.36" x="466.52" y="535.4479">Logger</text><text fill="#000000" font-family="sans-serif" font-size="10" lengthAdjust="spacing" textLength="43.76" x="466.52" y="549.0679">singleton</text></g><!--entity Discovery--><g class="entity" data-qualified-name="src.client.....Discovery" data-source-line="27" id="ent0015"><rect fill="#F1F1F1" height="47.24" rx="2.5" ry="2.5" style="stroke:#181818;stroke-width:0.5;" width="111.2999" x="883.49" y="634.7579"/><text fill="#000000" font-family="sans-serif" font-size="10" lengthAdjust="spacing" textLength="78.8299" x="893.49" y="655.4479">DiscoveryService</text><text fill="#000000" font-family="sans-serif" font-size="10" lengthAdjust="spacing" textLength="91.2999" x="893.49" y="669.0679">QML_ANONYMOUS</text></g><!--entity P2p--><g class="entity" data-qualified-name="src.client.....P2p" data-source-line="28" id="ent0016"><rect fill="#F1F1F1" height="33.62" rx="2.5" ry="2.5" style="stroke:#181818;stroke-width:0.5;" width="68.03" x="905.12" y="716.5679"/><text fill="#000000" font-family="sans-serif" font-size="10" lengthAdjust="spacing" textLength="48.03" x="915.12" y="737.2579">P2pServer</text></g><!--entity Sender--><g class="entity" data-qualified-name="src.client.....Sender" data-source-line="29" id="ent0017"><rect fill="#F1F1F1" height="33.62" rx="2.5" ry="2.5" style="stroke:#181818;stroke-width:0.5;" width="103.8099" x="887.23" y="785.5679"/><text fill="#000000" font-family="sans-serif" font-size="10" lengthAdjust="spacing" textLength="83.8099" x="897.23" y="806.2579">FileSenderWorker</text></g><!--entity Receiver--><g class="entity" data-qualified-name="src.client.....Receiver" data-source-line="30" id="ent0018"><rect fill="#F1F1F1" height="33.62" rx="2.5" ry="2.5" style="stroke:#181818;stroke-width:0.5;" width="110.31" x="1055.79" y="716.5679"/><text fill="#000000" font-family="sans-serif" font-size="10" lengthAdjust="spacing" textLength="90.31" x="1065.79" y="737.2579">FileReceiverWorker</text></g><!--entity Protocol--><g class="entity" data-qualified-name="src.shared.Protocol" data-source-line="35" id="ent0020"><rect fill="#F1F1F1" height="60.86" rx="2.5" ry="2.5" style="stroke:#181818;stroke-width:0.5;" width="68.2799" x="1546.19" y="808.9479"/><text fill="#000000" font-family="sans-serif" font-size="10" lengthAdjust="spacing" textLength="48.2799" x="1556.19" y="829.6379">protocol.h</text><text fill="#000000" font-family="sans-serif" font-size="10" lengthAdjust="spacing" textLength="48.1599" x="1556.19" y="843.2579">ErrorCode</text><text fill="#000000" font-family="sans-serif" font-size="10" lengthAdjust="spacing" textLength="32.45" x="1556.19" y="856.8779">Type&#30721;</text></g><!--entity Codec--><g class="entity" data-qualified-name="src.shared.Codec" data-source-line="36" id="ent0021"><rect fill="#F1F1F1" height="47.24" rx="2.5" ry="2.5" style="stroke:#181818;stroke-width:0.5;" width="78.88" x="1382.2" y="809.7579"/><text fill="#000000" font-family="sans-serif" font-size="10" lengthAdjust="spacing" textLength="58.88" x="1392.2" y="830.4479">FrameCodec</text><text fill="#000000" font-family="sans-serif" font-size="10" lengthAdjust="spacing" textLength="56.7999" x="1392.2" y="844.0679">TLV&#32534;&#35299;&#30721;&#22120;</text></g><!--entity Types--><g class="entity" data-qualified-name="src.shared.Types" data-source-line="37" id="ent0022"><rect fill="#F1F1F1" height="74.4799" rx="2.5" ry="2.5" style="stroke:#181818;stroke-width:0.5;" width="94.9999" x="1374.14" y="892.1379"/><text fill="#000000" font-family="sans-serif" font-size="10" lengthAdjust="spacing" textLength="59.57" x="1384.14" y="912.8279">data_types.h</text><text fill="#000000" font-family="sans-serif" font-size="10" lengthAdjust="spacing" textLength="40.52" x="1384.14" y="926.4479">PeerInfo</text><text fill="#000000" font-family="sans-serif" font-size="10" lengthAdjust="spacing" textLength="40.57" x="1384.14" y="940.0679">FileEntry</text><text fill="#000000" font-family="sans-serif" font-size="10" lengthAdjust="spacing" textLength="74.9999" x="1384.14" y="953.6879">TransferSession</text></g><!--entity Settings--><g class="entity" data-qualified-name="Settings" data-source-line="40" id="ent0023"><path d="M1078.01,56.0679 C1078.01,46.0679 1110.94,46.0679 1110.94,46.0679 C1110.94,46.0679 1143.87,46.0679 1143.87,56.0679 L1143.87,78.6879 C1143.87,88.6879 1110.94,88.6879 1110.94,88.6879 C1110.94,88.6879 1078.01,88.6879 1078.01,78.6879 L1078.01,56.0679" fill="#F1F1F1" style="stroke:#181818;stroke-width:0.5;"/><path d="M1078.01,56.0679 C1078.01,66.0679 1110.94,66.0679 1110.94,66.0679 C1110.94,66.0679 1143.87,66.0679 1143.87,56.0679" fill="none" style="stroke:#181818;stroke-width:0.5;"/><text fill="#000000" font-family="sans-serif" font-size="10" lengthAdjust="spacing" textLength="45.86" x="1088.01" y="80.7579">QSettings</text></g><!--entity ReceiveDir--><g class="entity" data-qualified-name="ReceiveDir" data-source-line="41" id="ent0024"><path d="M1360.6,695.7579 L1401.6,695.7579 A3.75,3.75 0 0 1 1404.1,698.2579 L1411.1,716.7579 L1482.6899,716.7579 A2.5,2.5 0 0 1 1485.1899,719.2579 L1485.1899,758.4979 A2.5,2.5 0 0 1 1482.6899,760.9979 L1360.6,760.9979 A2.5,2.5 0 0 1 1358.1,758.4979 L1358.1,698.2579 A2.5,2.5 0 0 1 1360.6,695.7579" fill="#F1F1F1" style="stroke:#181818;stroke-width:0.5;"/><line style="stroke:#181818;stroke-width:0.5;" x1="1358.1" x2="1411.1" y1="716.7579" y2="716.7579"/><text fill="#000000" font-family="sans-serif" font-size="10" lengthAdjust="spacing" textLength="39.9999" x="1368.1" y="734.4479">&#25509;&#25910;&#30446;&#24405;</text><text fill="#000000" font-family="sans-serif" font-size="10" lengthAdjust="spacing" textLength="97.0899" x="1368.1" y="748.0679">/GridYard/document</text></g><!--entity LogDir--><g class="entity" data-qualified-name="LogDir" data-source-line="42" id="ent0025"><path d="M704.94,875.7579 L745.94,875.7579 A3.75,3.75 0 0 1 748.44,878.2579 L755.44,896.7579 L798.6399,896.7579 A2.5,2.5 0 0 1 801.1399,899.2579 L801.1399,938.4979 A2.5,2.5 0 0 1 798.6399,940.9979 L704.94,940.9979 A2.5,2.5 0 0 1 702.44,938.4979 L702.44,878.2579 A2.5,2.5 0 0 1 704.94,875.7579" fill="#F1F1F1" style="stroke:#181818;stroke-width:0.5;"/><line style="stroke:#181818;stroke-width:0.5;" x1="702.44" x2="755.44" y1="896.7579" y2="896.7579"/><text fill="#000000" font-family="sans-serif" font-size="10" lengthAdjust="spacing" textLength="39.9999" x="712.44" y="914.4479">&#26085;&#24535;&#30446;&#24405;</text><text fill="#000000" font-family="sans-serif" font-size="10" lengthAdjust="spacing" textLength="68.6999" x="712.44" y="928.0679">/GridYard/logs</text></g><!--entity Peer--><g class="entity" data-qualified-name="Peer" data-source-line="43" id="ent0026"><path d="M1390.8005,626.6863 C1394.0488,617.8571 1401.2332,618.2568 1406.7888,624.1869 C1409.9744,614.1534 1415.6484,612.214 1423.5294,619.7002 C1430.1314,612.8252 1435.6076,616.0579 1438.2716,623.6995 C1444.622,618.1581 1450.5455,617.7257 1454.1552,626.6989 C1461.5682,629.1257 1463.3216,634.2754 1457.6792,640.1281 C1463.1899,644.9796 1461.4893,651.7304 1455.0343,654.3578 C1450.5203,662.1236 1443.7557,662.0035 1439.4186,654.1805 C1434.052,662.6316 1428.9453,663.2726 1422.3909,655.4211 C1418.7065,663.4589 1411.5793,663.1841 1407.5486,655.7534 C1401.7253,663.732 1395.928,661.6941 1391.8196,654.0292 C1383.862,651.6125 1382.2507,647.4791 1387.5712,640.7987 C1382.2114,635.5057 1384.1266,629.2256 1390.8005,626.6863" fill="#F1F1F1" style="stroke:#181818;stroke-width:0.5;"/><text fill="#000000" font-family="sans-serif" font-size="10" lengthAdjust="spacing" textLength="49.9999" x="1396.64" y="643.2579">&#23616;&#22495;&#32593;&#23545;&#31471;</text></g><!--link MainCpp to Logger--><g class="link" data-entity-1="ent0003" data-entity-2="ent0013" data-link-type="dependency" data-source-line="45" id="lnk27"><path d="M85.87,468.7679 C165.6,482.5979 370.6281,518.1333 450.3681,531.9533" fill="none" id="MainCpp-to-Logger" style="stroke:#181818;stroke-width:1;"/><polygon fill="#181818" points="456.28,532.9779,448.0953,527.4998,451.3534,532.1241,446.7291,535.3823,456.28,532.9779" style="stroke:#181818;stroke-width:1;"/><text fill="#000000" font-family="sans-serif" font-size="10" lengthAdjust="spacing" textLength="43.43" x="240.1" y="486.4679">initializes</text></g><!--link MainCpp to MainQml--><g class="link" data-entity-1="ent0003" data-entity-2="ent0005" data-link-type="dependency" data-source-line="46" id="lnk28"><path d="M65.99,446.2679 C88.64,413.0179 142.97,339.1779 205.5,296.3779 C212.6,291.5179 215.3694,289.7404 223.4094,286.6504" fill="none" id="MainCpp-to-MainQml" style="stroke:#181818;stroke-width:1;"/><polygon fill="#181818" points="229.01,284.4979,219.1741,283.9929,224.3428,286.2916,222.0441,291.4604,229.01,284.4979" style="stroke:#181818;stroke-width:1;"/><text fill="#000000" font-family="sans-serif" font-size="10" lengthAdjust="spacing" textLength="80.7799" x="116.5" y="300.0979">loadFromModule</text></g><!--link MainQml to App--><g class="link" data-entity-1="ent0005" data-entity-2="ent0009" data-link-type="dependency" data-source-line="47" id="lnk29"><path d="M289.76,292.4579 C291.15,293.7179 292.48,295.0279 293.7,296.3779 C312.62,317.3379 301.18,335.3379 323.7,352.3779 C356.19,376.9579 396.1168,384.9693 431.0568,387.5893" fill="none" id="MainQml-to-App" style="stroke:#181818;stroke-width:1;"/><polygon fill="#181818" points="437.04,388.0379,428.3643,383.3761,432.054,387.664,427.7661,391.3537,437.04,388.0379" style="stroke:#181818;stroke-width:1;"/><text fill="#000000" font-family="sans-serif" font-size="10" lengthAdjust="spacing" textLength="68.4799" x="324.7" y="349.0679">QML singleton</text></g><!--link MainQml to Config--><g class="link" data-entity-1="ent0005" data-entity-2="ent0011" data-link-type="dependency" data-source-line="48" id="lnk30"><path d="M293.95,283.0579 C324.36,290.3579 371.86,301.3879 413.35,309.3779 C586.63,342.7479 787.9589,372.299 881.7189,385.539" fill="none" id="MainQml-to-Config" style="stroke:#181818;stroke-width:1;"/><polygon fill="#181818" points="887.66,386.3779,879.3077,381.1588,882.7091,385.6788,878.1891,389.0802,887.66,386.3779" style="stroke:#181818;stroke-width:1;"/><text fill="#000000" font-family="sans-serif" font-size="10" lengthAdjust="spacing" textLength="68.4799" x="584.1" y="336.6579">QML singleton</text></g><!--link MainQml to Ui--><g class="link" data-entity-1="ent0005" data-entity-2="ent0006" data-link-type="dependency" data-source-line="49" id="lnk31"><path d="M293.86,269.6779 C327.28,263.5779 375.2773,254.8242 417.7273,247.0842" fill="none" id="MainQml-to-Ui" style="stroke:#181818;stroke-width:1;"/><polygon fill="#181818" points="423.63,246.0079,414.0585,243.6872,418.7111,246.9048,415.4935,251.5574,423.63,246.0079" style="stroke:#181818;stroke-width:1;"/></g><!--link Ui to Utils--><g class="link" data-entity-1="ent0006" data-entity-2="ent0007" data-link-type="dependency" data-source-line="50" id="lnk32"><path d="M553.34,234.3779 C601.86,234.3779 661.15,234.3779 703.12,234.3779" fill="none" id="Ui-to-Utils" style="stroke:#181818;stroke-width:1;"/><polygon fill="#181818" points="709.12,234.3779,700.12,230.3779,704.12,234.3779,700.12,238.3779,709.12,234.3779" style="stroke:#181818;stroke-width:1;"/></g><!--link App to Config--><g class="link" data-entity-1="ent0009" data-entity-2="ent0011" data-link-type="dependency" data-source-line="51" id="lnk33"><path d="M539.57,388.9379 C625.79,389.8979 795.1304,391.7806 881.6104,392.7506" fill="none" id="App-to-Config" style="stroke:#181818;stroke-width:1;"/><polygon fill="#181818" points="887.61,392.8179,878.6554,388.7172,882.6103,392.7618,878.5657,396.7167,887.61,392.8179" style="stroke:#181818;stroke-width:1;"/></g><!--link App to Discovery--><g class="link" data-entity-1="ent0009" data-entity-2="ent0015" data-link-type="dependency" data-source-line="52" id="lnk34"><path d="M539.92,396.1579 C609.89,409.1679 737.1,441.1879 820.49,511.3779 C846.85,533.5679 838.58,550.9879 859.49,578.3779 C874.97,598.6579 890.8356,615.0106 906.9056,630.1706" fill="none" id="App-to-Discovery" style="stroke:#181818;stroke-width:1;"/><polygon fill="#181818" points="911.27,634.2879,907.4682,625.2024,907.633,630.8569,901.9785,631.0216,911.27,634.2879" style="stroke:#181818;stroke-width:1;"/></g><!--link App to P2p--><g class="link" data-entity-1="ent0009" data-entity-2="ent0016" data-link-type="dependency" data-source-line="53" id="lnk35"><path d="M533.8,412.2779 C540.81,417.3079 547.56,423.0379 553.1,429.3779 C573.78,453.0279 564.1,468.3579 583.1,493.3779 C675.75,615.3979 725.24,625.5579 859.49,699.3779 C873.96,707.3379 885.1233,712.4901 899.4033,718.3801" fill="none" id="App-to-P2p" style="stroke:#181818;stroke-width:1;"/><polygon fill="#181818" points="904.95,720.6679,898.1552,713.5384,900.3277,718.7614,895.1047,720.934,904.95,720.6679" style="stroke:#181818;stroke-width:1;"/></g><!--link App to Tsm--><g class="link" data-entity-1="ent0009" data-entity-2="ent0010" data-link-type="dependency" data-source-line="54" id="lnk36"><path d="M529.38,412.3979 C582.59,444.3479 670.2167,496.9782 716.9767,525.0682" fill="none" id="App-to-Tsm" style="stroke:#181818;stroke-width:1;"/><polygon fill="#181818" points="722.12,528.1579,716.4649,520.0945,717.8339,525.5831,712.3452,526.9522,722.12,528.1579" style="stroke:#181818;stroke-width:1;"/></g><!--link Tsm to Config--><g class="link" data-entity-1="ent0010" data-entity-2="ent0011" data-link-type="dependency" data-source-line="55" id="lnk37"><path d="M773.7,528.2379 C806.74,501.1379 866.5009,452.133 904.1609,421.243" fill="none" id="Tsm-to-Config" style="stroke:#181818;stroke-width:1;"/><polygon fill="#181818" points="908.8,417.4379,899.3046,420.0529,904.9341,420.6089,904.3781,426.2383,908.8,417.4379" style="stroke:#181818;stroke-width:1;"/></g><!--link Tsm to Discovery--><g class="link" data-entity-1="ent0010" data-entity-2="ent0015" data-link-type="dependency" data-source-line="56" id="lnk38"><path d="M780.94,562.5379 C812.34,581.6779 858.2172,609.6544 893.5772,631.2144" fill="none" id="Tsm-to-Discovery" style="stroke:#181818;stroke-width:1;"/><polygon fill="#181818" points="898.7,634.3379,893.0981,626.2374,894.431,631.735,888.9334,633.0678,898.7,634.3379" style="stroke:#181818;stroke-width:1;"/></g><!--link Tsm to P2p--><g class="link" data-entity-1="ent0010" data-entity-2="ent0016" data-link-type="dependency" data-source-line="57" id="lnk39"><path d="M776.19,562.4079 C799.36,580.6579 833.85,611.8479 851.49,647.3779 C861.89,668.3179 845.2,680.8679 859.49,699.3779 C870.49,713.6179 882.927,720.2607 899.027,725.1307" fill="none" id="Tsm-to-P2p" style="stroke:#181818;stroke-width:1;"/><polygon fill="#181818" points="904.77,726.8679,897.3136,720.4335,899.9842,725.4203,894.9974,728.0908,904.77,726.8679" style="stroke:#181818;stroke-width:1;"/></g><!--link Tsm to Sender--><g class="link" data-entity-1="ent0010" data-entity-2="ent0017" data-link-type="dependency" data-source-line="58" id="lnk40"><path d="M756.69,562.5079 C766.77,603.2579 797.37,707.0479 859.49,767.3779 C867.32,774.9779 871.6887,778.4546 881.6387,783.3146" fill="none" id="Tsm-to-Sender" style="stroke:#181818;stroke-width:1;"/><polygon fill="#181818" points="887.03,785.9479,880.6987,778.4038,882.5373,783.7535,877.1876,785.5921,887.03,785.9479" style="stroke:#181818;stroke-width:1;"/></g><!--link P2p to Receiver--><g class="link" data-entity-1="ent0016" data-entity-2="ent0018" data-link-type="dependency" data-source-line="59" id="lnk41"><path d="M973.28,733.3779 C996.64,733.3779 1022.45,733.3779 1049.5,733.3779" fill="none" id="P2p-to-Receiver" style="stroke:#181818;stroke-width:1;"/><polygon fill="#181818" points="1055.5,733.3779,1046.5,729.3779,1050.5,733.3779,1046.5,737.3779,1055.5,733.3779" style="stroke:#181818;stroke-width:1;"/></g><!--link Sender to Dir--><g class="link" data-entity-1="ent0017" data-entity-2="ent0012" data-link-type="dependency" data-source-line="60" id="lnk42"><path d="M886.86,809.5679 C808.98,817.3079 661.64,818.8779 583.1,735.3779 C510.05,657.7179 613.56,585.1879 553.1,497.3779 C546.77,488.1879 542.4804,484.0323 532.6104,478.9323" fill="none" id="Sender-to-Dir" style="stroke:#181818;stroke-width:1;"/><polygon fill="#181818" points="527.28,476.1779,533.4394,483.863,531.722,478.4732,537.1119,476.7558,527.28,476.1779" style="stroke:#181818;stroke-width:1;"/></g><!--link Sender to Codec--><g class="link" data-entity-1="ent0017" data-entity-2="ent0021" data-link-type="dependency" data-source-line="61" id="lnk43"><path d="M991.11,805.6679 C1087.72,811.8979 1289.5525,824.9215 1375.8525,830.4915" fill="none" id="Sender-to-Codec" style="stroke:#181818;stroke-width:1;"/><polygon fill="#181818" points="1381.84,830.8779,1373.1163,826.3065,1376.8504,830.5559,1372.6011,834.2899,1381.84,830.8779" style="stroke:#181818;stroke-width:1;"/></g><!--link Receiver to Codec--><g class="link" data-entity-1="ent0018" data-entity-2="ent0021" data-link-type="dependency" data-source-line="62" id="lnk44"><path d="M1165.36,750.6779 C1227.14,770.6979 1321.6322,801.2982 1376.3122,819.0182" fill="none" id="Receiver-to-Codec" style="stroke:#181818;stroke-width:1;"/><polygon fill="#181818" points="1382.02,820.8679,1374.6915,814.2882,1377.2635,819.3265,1372.2252,821.8985,1382.02,820.8679" style="stroke:#181818;stroke-width:1;"/></g><!--link Discovery to Types--><g class="link" data-entity-1="ent0015" data-entity-2="ent0022" data-link-type="dependency" data-source-line="63" id="lnk45"><path d="M991.92,682.4779 C999.87,687.4279 1007.6,693.0779 1014.18,699.3779 C1039.78,723.8779 1029.15,744.0179 1055.79,767.3779 C1151.94,851.6779 1293.2075,897.0813 1367.8575,916.7213" fill="none" id="Discovery-to-Types" style="stroke:#181818;stroke-width:1;"/><polygon fill="#181818" points="1373.66,918.2479,1365.9739,912.0896,1368.8246,916.9757,1363.9384,919.8264,1373.66,918.2479" style="stroke:#181818;stroke-width:1;"/></g><!--link Codec to Protocol--><g class="link" data-entity-1="ent0021" data-entity-2="ent0020" data-link-type="dependency" data-source-line="64" id="lnk46"><path d="M1461.38,834.8579 C1487.29,835.8579 1515.0644,836.9179 1539.8244,837.8679" fill="none" id="Codec-to-Protocol" style="stroke:#181818;stroke-width:1;"/><polygon fill="#181818" points="1545.82,838.0979,1536.98,833.7558,1540.8237,837.9062,1536.6733,841.7499,1545.82,838.0979" style="stroke:#181818;stroke-width:1;"/></g><!--link Config to Settings--><g class="link" data-entity-1="ent0011" data-entity-2="ent0023" data-link-type="dependency" data-source-line="65" id="lnk47"><path d="M952.63,369.4079 C984.49,308.2379 1065.658,152.3992 1096.018,94.1192" fill="none" id="Config-to-Settings" style="stroke:#181818;stroke-width:1;"/><polygon fill="#181818" points="1098.79,88.7979,1091.0845,94.9318,1096.48,93.2323,1098.1795,98.6278,1098.79,88.7979" style="stroke:#181818;stroke-width:1;"/></g><!--link Logger to LogDir--><g class="link" data-entity-1="ent0013" data-entity-2="ent0025" data-link-type="dependency" data-source-line="66" id="lnk48"><path d="M493.53,562.3479 C502.66,609.6879 528.24,716.8379 583.1,788.3779 C614.9,829.8579 659.7489,860.1192 696.8989,880.9892" fill="none" id="Logger-to-LogDir" style="stroke:#181818;stroke-width:1;"/><polygon fill="#181818" points="702.13,883.9279,696.2425,876.0325,697.7708,881.479,692.3243,883.0073,702.13,883.9279" style="stroke:#181818;stroke-width:1;"/></g><!--link Receiver to ReceiveDir--><g class="link" data-entity-1="ent0018" data-entity-2="ent0024" data-link-type="dependency" data-source-line="67" id="lnk49"><path d="M1166.16,735.8379 C1209.89,737.4179 1272.98,738.7579 1328.1,736.3779 C1337.77,735.9579 1342.0078,735.7595 1351.9878,734.9895" fill="none" id="Receiver-to-ReceiveDir" style="stroke:#181818;stroke-width:1;"/><polygon fill="#181818" points="1357.97,734.5279,1348.689,731.2321,1352.9848,734.9125,1349.3044,739.2084,1357.97,734.5279" style="stroke:#181818;stroke-width:1;"/><text fill="#000000" font-family="sans-serif" font-size="10" lengthAdjust="spacing" textLength="88.0799" x="1231.1" y="733.0679">writes verified files</text></g><!--link Discovery to Peer--><g class="link" data-entity-1="ent0015" data-entity-2="ent0026" data-link-type="dependency" data-source-line="68" id="lnk50"><path d="M982.1858,631.4276 C996.5158,623.4076 1008.22,618.4279 1024.79,614.3779 C1155.74,582.3779 1194.47,596.6479 1328.1,614.3779 C1345.92,616.7379 1359.4122,619.8705 1375.7222,624.6505" fill="none" id="Discovery-Peer" style="stroke:#181818;stroke-width:1;"/><polygon fill="#181818" points="976.95,634.3579,986.7572,633.453,981.3132,631.916,982.8502,626.472,976.95,634.3579" style="stroke:#181818;stroke-width:1;"/><polygon fill="#181818" points="1381.48,626.3379,1373.9682,619.9682,1376.6818,624.9317,1371.7183,627.6453,1381.48,626.3379" style="stroke:#181818;stroke-width:1;"/><text fill="#000000" font-family="sans-serif" font-size="10" lengthAdjust="spacing" textLength="81.3999" x="1070.44" y="592.0479">UDP Hello :45678</text></g><!--link Sender to Peer--><g class="link" data-entity-1="ent0017" data-entity-2="ent0026" data-link-type="dependency" data-source-line="69" id="lnk51"><path d="M992.6853,782.4122 C1002.2253,777.5922 1006.36,774.4079 1014.18,767.3779 C1040.55,743.7079 1026.96,719.9779 1055.79,699.3779 C1155.56,628.1079 1303.5672,629.3336 1375.3372,634.7836" fill="none" id="Sender-Peer" style="stroke:#181818;stroke-width:1;"/><polygon fill="#181818" points="987.33,785.1179,997.1667,784.6295,991.7927,782.8632,993.5591,777.4892,987.33,785.1179" style="stroke:#181818;stroke-width:1;"/><polygon fill="#181818" points="1381.32,635.2379,1372.6487,630.5679,1376.3344,634.8593,1372.043,638.545,1381.32,635.2379" style="stroke:#181818;stroke-width:1;"/><text fill="#000000" font-family="sans-serif" font-size="10" lengthAdjust="spacing" textLength="104.2099" x="1058.94" y="638.0579">TCP file frames :35100</text></g><!--link Receiver to Peer--><g class="link" data-entity-1="ent0018" data-entity-2="ent0026" data-link-type="dependency" data-source-line="70" id="lnk52"><path d="M1172.3814,722.061 C1216.5814,713.141 1274.26,699.8879 1328.1,681.3779 C1345.95,675.2379 1359.6231,669.4571 1375.8031,661.8271" fill="none" id="Receiver-Peer" style="stroke:#181818;stroke-width:1;"/><polygon fill="#181818" points="1166.5,723.2479,1176.1134,725.3885,1171.4012,722.2588,1174.5309,717.5466,1166.5,723.2479" style="stroke:#181818;stroke-width:1;"/><polygon fill="#181818" points="1381.23,659.2679,1371.3836,659.4887,1376.7076,661.4005,1374.7958,666.7245,1381.23,659.2679" style="stroke:#181818;stroke-width:1;"/><text fill="#000000" font-family="sans-serif" font-size="10" lengthAdjust="spacing" textLength="104.2099" x="1223.1" y="678.0679">TCP file frames :35100</text></g><?plantuml-src XLHRQnD157xFhnZwtfjtYWWXQLH8sceIfHYHSNSs7JixiyvCAbKKByN7eb0LBNWN2uAN1ujQBt_6JTed_u9dBfjiIj67mCvtldF_JZJLZA290wYtjV9xQpDT__dd-vDqVJtzTBlxTBFxTENtbzNqzSETEnlRdrUwt-uL68aqqW99sbxGAAII19eANb2Bb2TOuXW58au49rpNzJB4DWJCsupiHQa8eD6h14rEvimXYN27vOmJXKA2WqNS9cX4oM0yO1ISHz2r0aBdOapvM90avn5Mg0QFKf80tdSuLQkYxHSRlTMFq9Jp0Iz37BiSixxNgPWvIuUEjtYPBD60bB0C3Qd5vmYHLQhq6KgkECGnwaGfQ7y05uE09BfCCHDjXzI9rfItLHvhICnLH6G3gyKiYQsaINqHcZ85TTWPZbrIBLuHCiQwQN1uEx9v0FzwljtqsrflRMFdvjRsp_lvXej9KeA1Ii4OaIqEKxbGFpbpl3hTc9snqOfsRC3CYlEzrJ27mD9o6Yfs70WLqROtxHND4HovJ26MXFPXcIuE8CvK5MqRG54Z4IsuDJjqTsSxB--cpvxbUofJ5OWb8fSXlDc6AwGuCpipNvjjrdqgpt4kS_iIG_PrmCl15SfWbpmaygoGYzxgW07XD0a8NHgYP92jzVekcQe5B4dePPf8eKKWsDX2YqzBAMH9X51mOpaXlUUtN3MUOkWLE0HYA05mgcTwtnzkltq5nFJnXfylc0mnn1fVq115cSX6foTv940lKF0qx7jve3Q_KBT9us4gDluNiJA7aYbrn3Nl7eL8C9W26kcklkckRVRMtwS_7hJuZV7ZaeRpeDtnK0ITsDxZO21cmNt7Hs_INu_sS8HpSBbWtyOXOA8JWe8_tOGzztxSJpzyxRtxO1cchqB1NpSQ7JtcDOAc4ELKEssf8O8_Qc0mWSEA575DX1tu7yeCXWIY1uBvY-WhSCZkPFnF2fniaxelUuz5dzzVGFOSw313ZFYoRtDOyCixPi-1OuOOn-pRQnGW--phqU4-mD3JAISZvg1-8bUH5OYrkAIPEFr8N7Al4RyClnUJS2Z-G1GmoIkIQg8Gs6X4IOWY4AhA9Jzgin6xssPv3fqWZ0aqTU3WeSD7iZxod4PfpiP0aJaPXQRs7voSc1WKy7_kNm00?></g></svg>