<?plantuml 1.2026.2?><svg xmlns="http://www.w3.org/2000/svg" xmlns:xlink="http://www.w3.org/1999/xlink" contentStyleType="text/css" data-diagram-type="DESCRIPTION" height="754px" preserveAspectRatio="none" style="width:1370px;height:754px;background:#FFFFFF;" version="1.1" viewBox="0 0 1370 754" width="1370px" zoomAndPan="magnify"><title>10 &#37096;&#32626;&#22270;&#65306;&#21452;&#31471;&#23458;&#25143;&#31471;&#12289;&#31471;&#21475;&#19982;&#22806;&#37096;&#36164;&#28304;</title><defs/><g><g class="title" data-source-line="6"><text fill="#000000" font-family="sans-serif" font-size="14" font-weight="bold" lengthAdjust="spacing" textLength="257.0583" x="549.5209" y="22.9951">10 &#37096;&#32626;&#22270;&#65306;&#21452;&#31471;&#23458;&#25143;&#31471;&#12289;&#31471;&#21475;&#19982;&#22806;&#37096;&#36164;&#28304;</text></g><!--cluster SenderApp--><g class="cluster" data-qualified-name="SenderApp" data-source-line="10" id="ent0002"><polygon fill="none" points="16,53.2969,26,43.2969,478.03,43.2969,478.03,301.2969,468.03,311.2969,16,311.2969,16,53.2969" style="stroke:#181818;stroke-width:1;"/><line style="stroke:#181818;stroke-width:1;" x1="468.03" x2="478.03" y1="53.2969" y2="43.2969"/><line style="stroke:#181818;stroke-width:1;" x1="16" x2="468.03" y1="53.2969" y2="53.2969"/><line style="stroke:#181818;stroke-width:1;" x1="468.03" x2="468.03" y1="53.2969" y2="311.2969"/><text fill="#000000" font-family="sans-serif" font-size="10" font-weight="bold" lengthAdjust="spacing" textLength="107.9101" x="189.0599" y="65.5791">&#21457;&#36865;&#31471; GridYard &#23458;&#25143;&#31471;</text></g><!--cluster ReceiverApp--><g class="cluster" data-qualified-name="ReceiverApp" data-source-line="21" id="ent0010"><polygon fill="none" points="312.88,405.2969,322.88,395.2969,1353.1,395.2969,1353.1,727.2969,1343.1,737.2969,312.88,737.2969,312.88,405.2969" style="stroke:#181818;stroke-width:1;"/><line style="stroke:#181818;stroke-width:1;" x1="1343.1" x2="1353.1" y1="405.2969" y2="395.2969"/><line style="stroke:#181818;stroke-width:1;" x1="312.88" x2="1343.1" y1="405.2969" y2="405.2969"/><line style="stroke:#181818;stroke-width:1;" x1="1343.1" x2="1343.1" y1="405.2969" y2="737.2969"/><text fill="#000000" font-family="sans-serif" font-size="10" font-weight="bold" lengthAdjust="spacing" textLength="107.9101" x="775.0349" y="417.5791">&#25509;&#25910;&#31471; GridYard &#23458;&#25143;&#31471;</text></g><!--entity SenderUi--><g class="entity" data-qualified-name="SenderApp.SenderUi" data-source-line="11" id="ent0003"><rect fill="#F1F1F1" height="53.2813" rx="2.5" ry="2.5" style="stroke:#181818;stroke-width:0.5;" width="95.127" x="44.42" y="153.6569"/><rect fill="#F1F1F1" height="10" style="stroke:#181818;stroke-width:0.5;" width="15" x="119.547" y="158.6569"/><rect fill="#F1F1F1" height="2" style="stroke:#181818;stroke-width:0.5;" width="4" x="117.547" y="160.6569"/><rect fill="#F1F1F1" height="2" style="stroke:#181818;stroke-width:0.5;" width="4" x="117.547" y="164.6569"/><text fill="#000000" font-family="sans-serif" font-size="10" lengthAdjust="spacing" textLength="34.0039" x="59.42" y="182.9391">QML UI</text><text fill="#000000" font-family="sans-serif" font-size="10" lengthAdjust="spacing" textLength="55.127" x="59.42" y="194.5797">main thread</text></g><!--entity SenderDiscovery--><g class="entity" data-qualified-name="SenderApp.SenderDiscovery" data-source-line="12" id="ent0004"><rect fill="#F1F1F1" height="41.6406" rx="2.5" ry="2.5" style="stroke:#181818;stroke-width:0.5;" width="115.249" x="328.88" y="79.4769"/><rect fill="#F1F1F1" height="10" style="stroke:#181818;stroke-width:0.5;" width="15" x="424.129" y="84.4769"/><rect fill="#F1F1F1" height="2" style="stroke:#181818;stroke-width:0.5;" width="4" x="422.129" y="86.4769"/><rect fill="#F1F1F1" height="2" style="stroke:#181818;stroke-width:0.5;" width="4" x="422.129" y="90.4769"/><text fill="#000000" font-family="sans-serif" font-size="10" lengthAdjust="spacing" textLength="75.249" x="343.88" y="108.7591">DiscoveryService</text></g><!--entity SenderTsm--><g class="entity" data-qualified-name="SenderApp.SenderTsm" data-source-line="13" id="ent0005"><rect fill="#F1F1F1" height="41.6406" rx="2.5" ry="2.5" style="stroke:#181818;stroke-width:0.5;" width="151.0596" x="310.97" y="157.4769"/><rect fill="#F1F1F1" height="10" style="stroke:#181818;stroke-width:0.5;" width="15" x="442.0296" y="162.4769"/><rect fill="#F1F1F1" height="2" style="stroke:#181818;stroke-width:0.5;" width="4" x="440.0296" y="164.4769"/><rect fill="#F1F1F1" height="2" style="stroke:#181818;stroke-width:0.5;" width="4" x="440.0296" y="168.4769"/><text fill="#000000" font-family="sans-serif" font-size="10" lengthAdjust="spacing" textLength="111.0596" x="325.97" y="186.7591">TransferSessionManager</text></g><!--entity SenderWorker--><g class="entity" data-qualified-name="SenderApp.SenderWorker" data-source-line="14" id="ent0006"><rect fill="#F1F1F1" height="53.2813" rx="2.5" ry="2.5" style="stroke:#181818;stroke-width:0.5;" width="119.9707" x="32" y="241.6569"/><rect fill="#F1F1F1" height="10" style="stroke:#181818;stroke-width:0.5;" width="15" x="131.9707" y="246.6569"/><rect fill="#F1F1F1" height="2" style="stroke:#181818;stroke-width:0.5;" width="4" x="129.9707" y="248.6569"/><rect fill="#F1F1F1" height="2" style="stroke:#181818;stroke-width:0.5;" width="4" x="129.9707" y="252.6569"/><text fill="#000000" font-family="sans-serif" font-size="10" lengthAdjust="spacing" textLength="79.9707" x="47" y="270.9391">FileSenderWorker</text><text fill="#000000" font-family="sans-serif" font-size="10" lengthAdjust="spacing" textLength="72.5586" x="47" y="282.5797">sender QThread</text></g><!--entity SenderSettings--><g class="entity" data-qualified-name="SenderApp.SenderSettings" data-source-line="15" id="ent0007"><path d="M60.53,87.9769 C60.53,77.9769 91.9851,77.9769 91.9851,77.9769 C91.9851,77.9769 123.4402,77.9769 123.4402,87.9769 L123.4402,108.6175 C123.4402,118.6175 91.9851,118.6175 91.9851,118.6175 C91.9851,118.6175 60.53,118.6175 60.53,108.6175 L60.53,87.9769" fill="#F1F1F1" style="stroke:#181818;stroke-width:0.5;"/><path d="M60.53,87.9769 C60.53,97.9769 91.9851,97.9769 91.9851,97.9769 C91.9851,97.9769 123.4402,97.9769 123.4402,87.9769" fill="none" style="stroke:#181818;stroke-width:0.5;"/><text fill="#000000" font-family="sans-serif" font-size="10" lengthAdjust="spacing" textLength="42.9102" x="70.53" y="111.2591">QSettings</text></g><!--entity Source--><g class="entity" data-qualified-name="SenderApp.Source" data-source-line="16" id="ent0008"><path d="M348.47,234.4769 L389.47,234.4769 A3.75,3.75 0 0 1 391.97,236.9769 L398.97,255.4769 L424.5393,255.4769 A2.5,2.5 0 0 1 427.0393,257.9769 L427.0393,281.6175 A2.5,2.5 0 0 1 424.5393,284.1175 L348.47,284.1175 A2.5,2.5 0 0 1 345.97,281.6175 L345.97,236.9769 A2.5,2.5 0 0 1 348.47,234.4769" fill="#F1F1F1" style="stroke:#181818;stroke-width:0.5;"/><line style="stroke:#181818;stroke-width:0.5;" x1="345.97" x2="398.97" y1="255.4769" y2="255.4769"/><text fill="#000000" font-family="sans-serif" font-size="10" lengthAdjust="spacing" textLength="51.0693" x="355.97" y="271.7591">source files</text></g><!--entity ReceiverUi--><g class="entity" data-qualified-name="ReceiverApp.ReceiverUi" data-source-line="22" id="ent0011"><rect fill="#F1F1F1" height="53.2813" rx="2.5" ry="2.5" style="stroke:#181818;stroke-width:0.5;" width="95.127" x="338.94" y="667.6569"/><rect fill="#F1F1F1" height="10" style="stroke:#181818;stroke-width:0.5;" width="15" x="414.067" y="672.6569"/><rect fill="#F1F1F1" height="2" style="stroke:#181818;stroke-width:0.5;" width="4" x="412.067" y="674.6569"/><rect fill="#F1F1F1" height="2" style="stroke:#181818;stroke-width:0.5;" width="4" x="412.067" y="678.6569"/><text fill="#000000" font-family="sans-serif" font-size="10" lengthAdjust="spacing" textLength="34.0039" x="353.94" y="696.9391">QML UI</text><text fill="#000000" font-family="sans-serif" font-size="10" lengthAdjust="spacing" textLength="55.127" x="353.94" y="708.5797">main thread</text></g><!--entity ReceiverDiscovery--><g class="entity" data-qualified-name="ReceiverApp.ReceiverDiscovery" data-source-line="23" id="ent0012"><rect fill="#F1F1F1" height="41.6406" rx="2.5" ry="2.5" style="stroke:#181818;stroke-width:0.5;" width="115.249" x="328.88" y="515.4769"/><rect fill="#F1F1F1" height="10" style="stroke:#181818;stroke-width:0.5;" width="15" x="424.129" y="520.4769"/><rect fill="#F1F1F1" height="2" style="stroke:#181818;stroke-width:0.5;" width="4" x="422.129" y="522.4769"/><rect fill="#F1F1F1" height="2" style="stroke:#181818;stroke-width:0.5;" width="4" x="422.129" y="526.4769"/><text fill="#000000" font-family="sans-serif" font-size="10" lengthAdjust="spacing" textLength="75.249" x="343.88" y="544.7591">DiscoveryService</text></g><!--entity ReceiverServer--><g class="entity" data-qualified-name="ReceiverApp.ReceiverServer" data-source-line="24" id="ent0013"><rect fill="#F1F1F1" height="53.2813" rx="2.5" ry="2.5" style="stroke:#181818;stroke-width:0.5;" width="95.127" x="648.03" y="585.6569"/><rect fill="#F1F1F1" height="10" style="stroke:#181818;stroke-width:0.5;" width="15" x="723.157" y="590.6569"/><rect fill="#F1F1F1" height="2" style="stroke:#181818;stroke-width:0.5;" width="4" x="721.157" y="592.6569"/><rect fill="#F1F1F1" height="2" style="stroke:#181818;stroke-width:0.5;" width="4" x="721.157" y="596.6569"/><text fill="#000000" font-family="sans-serif" font-size="10" lengthAdjust="spacing" textLength="45.791" x="663.03" y="614.9391">P2pServer</text><text fill="#000000" font-family="sans-serif" font-size="10" lengthAdjust="spacing" textLength="55.127" x="663.03" y="626.5797">main thread</text></g><!--entity ReceiverWorker--><g class="entity" data-qualified-name="ReceiverApp.ReceiverWorker" data-source-line="25" id="ent0014"><rect fill="#F1F1F1" height="53.2813" rx="2.5" ry="2.5" style="stroke:#181818;stroke-width:0.5;" width="187.8369" x="876.16" y="585.6569"/><rect fill="#F1F1F1" height="10" style="stroke:#181818;stroke-width:0.5;" width="15" x="1043.9969" y="590.6569"/><rect fill="#F1F1F1" height="2" style="stroke:#181818;stroke-width:0.5;" width="4" x="1041.9969" y="592.6569"/><rect fill="#F1F1F1" height="2" style="stroke:#181818;stroke-width:0.5;" width="4" x="1041.9969" y="596.6569"/><text fill="#000000" font-family="sans-serif" font-size="10" lengthAdjust="spacing" textLength="86.2891" x="891.16" y="614.9391">FileReceiverWorker</text><text fill="#000000" font-family="sans-serif" font-size="10" lengthAdjust="spacing" textLength="147.8369" x="891.16" y="626.5797">receiver QThread per connection</text></g><!--entity ReceiverSettings--><g class="entity" data-qualified-name="ReceiverApp.ReceiverSettings" data-source-line="26" id="ent0015"><path d="M355.05,601.9769 C355.05,591.9769 386.5051,591.9769 386.5051,591.9769 C386.5051,591.9769 417.9602,591.9769 417.9602,601.9769 L417.9602,622.6175 C417.9602,632.6175 386.5051,632.6175 386.5051,632.6175 C386.5051,632.6175 355.05,632.6175 355.05,622.6175 L355.05,601.9769" fill="#F1F1F1" style="stroke:#181818;stroke-width:0.5;"/><path d="M355.05,601.9769 C355.05,611.9769 386.5051,611.9769 386.5051,611.9769 C386.5051,611.9769 417.9602,611.9769 417.9602,601.9769" fill="none" style="stroke:#181818;stroke-width:0.5;"/><text fill="#000000" font-family="sans-serif" font-size="10" lengthAdjust="spacing" textLength="42.9102" x="365.05" y="625.2591">QSettings</text></g><!--entity ReceiveDir--><g class="entity" data-qualified-name="ReceiverApp.ReceiveDir" data-source-line="27" id="ent0016"><path d="M1234.49,587.4769 L1275.49,587.4769 A3.75,3.75 0 0 1 1277.99,589.9769 L1284.99,608.4769 L1334.5925,608.4769 A2.5,2.5 0 0 1 1337.0925,610.9769 L1337.0925,634.6175 A2.5,2.5 0 0 1 1334.5925,637.1175 L1234.49,637.1175 A2.5,2.5 0 0 1 1231.99,634.6175 L1231.99,589.9769 A2.5,2.5 0 0 1 1234.49,587.4769" fill="#F1F1F1" style="stroke:#181818;stroke-width:0.5;"/><line style="stroke:#181818;stroke-width:0.5;" x1="1231.99" x2="1284.99" y1="608.4769" y2="608.4769"/><text fill="#000000" font-family="sans-serif" font-size="10" lengthAdjust="spacing" textLength="75.1025" x="1241.99" y="624.7591">receive directory</text></g><!--entity Logs--><g class="entity" data-qualified-name="ReceiverApp.Logs" data-source-line="28" id="ent0017"><path d="M353.06,430.4769 L394.06,430.4769 A3.75,3.75 0 0 1 396.56,432.9769 L403.56,451.4769 L419.9399,451.4769 A2.5,2.5 0 0 1 422.4399,453.9769 L422.4399,477.6175 A2.5,2.5 0 0 1 419.9399,480.1175 L353.06,480.1175 A2.5,2.5 0 0 1 350.56,477.6175 L350.56,432.9769 A2.5,2.5 0 0 1 353.06,430.4769" fill="#F1F1F1" style="stroke:#181818;stroke-width:0.5;"/><line style="stroke:#181818;stroke-width:0.5;" x1="350.56" x2="403.56" y1="451.4769" y2="451.4769"/><text fill="#000000" font-family="sans-serif" font-size="10" lengthAdjust="spacing" textLength="41.8799" x="360.56" y="467.7591">daily logs</text></g><!--entity Lan--><g class="entity" data-qualified-name="Lan" data-source-line="19" id="ent0009"><path d="M681.3693,338.9191 C684.6286,330.7335 690.4863,329.6725 696.4714,336.1026 C702.389,329.7508 708.3861,329.6365 711.7353,338.6535 C718.4899,340.4618 721.4241,345.9664 715.4566,351.469 C720.5594,357.3751 719.2714,361.9277 712.6596,365.4982 C711.1789,374.5949 706.7858,379.6261 697.2155,373.9627 C688.2764,379.41 680.5709,377.3505 680.0868,365.5608 C672.2877,364.4352 669.9904,359.1153 673.3614,352.3172 C669.5184,344.1383 673.2553,339.9515 681.3693,338.9191" fill="#F1F1F1" style="stroke:#181818;stroke-width:0.5;"/><text fill="#000000" font-family="sans-serif" font-size="10" lengthAdjust="spacing" textLength="18.2813" x="686.45" y="354.7591">LAN</text></g><!--link SenderDiscovery to Lan--><g class="link" data-entity-1="ent0004" data-entity-2="ent0009" data-link-type="dependency" data-source-line="31" id="lnk18"><path d="M450.019,121.1492 C464.169,126.9692 473.36,131.8469 486.03,140.2969 C569.36,195.9069 642.7759,284.0811 675.0059,325.5111" fill="none" id="SenderDiscovery-Lan" style="stroke:#181818;stroke-width:1;"/><polygon fill="#181818" points="444.47,118.8669,451.2719,125.9897,449.0941,120.7688,454.315,118.5911,444.47,118.8669" style="stroke:#181818;stroke-width:1;"/><polygon fill="#181818" points="678.69,330.2469,676.321,320.6872,675.6199,326.3004,670.0067,325.5993,678.69,330.2469" style="stroke:#181818;stroke-width:1;"/><text fill="#000000" font-family="sans-serif" font-size="10" lengthAdjust="spacing" textLength="45.4932" x="533.53" y="134.6591">UDP Hello</text><text fill="#000000" font-family="sans-serif" font-size="10" lengthAdjust="spacing" textLength="27.5391" x="542.5071" y="146.2997">45678</text></g><!--link ReceiverDiscovery to Lan--><g class="link" data-entity-1="ent0012" data-entity-2="ent0009" data-link-type="dependency" data-source-line="32" id="lnk19"><path d="M450.1092,514.1044 C463.9792,508.5444 472.99,504.3169 486.03,497.2969 C557.45,458.8569 628.9558,404.2563 666.3858,374.2963" fill="none" id="ReceiverDiscovery-Lan" style="stroke:#181818;stroke-width:1;"/><polygon fill="#181818" points="444.54,516.3369,454.3821,516.7009,449.181,514.4765,451.4055,509.2753,444.54,516.3369" style="stroke:#181818;stroke-width:1;"/><polygon fill="#181818" points="671.07,370.5469,661.5441,373.0481,667.1665,373.6714,666.5432,379.2938,671.07,370.5469" style="stroke:#181818;stroke-width:1;"/><text fill="#000000" font-family="sans-serif" font-size="10" lengthAdjust="spacing" textLength="45.4932" x="533.53" y="396.7391">UDP Hello</text><text fill="#000000" font-family="sans-serif" font-size="10" lengthAdjust="spacing" textLength="27.5391" x="542.5071" y="408.3797">45678</text></g><!--link SenderWorker to Lan--><g class="link" data-entity-1="ent0006" data-entity-2="ent0009" data-link-type="dependency" data-source-line="33" id="lnk20"><path d="M152.09,287.9469 C194.19,301.0869 252.4,317.5269 304.88,326.2969 C442.3,349.2669 604.22,351.4688 665.12,351.4488" fill="none" id="SenderWorker-to-Lan" style="stroke:#181818;stroke-width:1;"/><polygon fill="#181818" points="671.12,351.4469,662.12,347.4469,666.12,351.4469,662.12,355.4469,671.12,351.4469" style="stroke:#181818;stroke-width:1;"/><text fill="#000000" font-family="sans-serif" font-size="10" lengthAdjust="spacing" textLength="130.2588" x="321.4946" y="311.5791">TCP connect / TLV file frames</text><text fill="#000000" font-family="sans-serif" font-size="10" lengthAdjust="spacing" textLength="134.248" x="319.5" y="323.2197">35100 or peer advertised port</text></g><!--link Lan to ReceiverServer--><g class="link" data-entity-1="ent0009" data-entity-2="ent0013" data-link-type="dependency" data-source-line="34" id="lnk21"><path d="M695.59,372.5169 C695.59,419.7069 695.59,527.2469 695.59,579.3469" fill="none" id="Lan-to-ReceiverServer" style="stroke:#181818;stroke-width:1;"/><polygon fill="#181818" points="695.59,585.3469,699.59,576.3469,695.59,580.3469,691.59,576.3469,695.59,585.3469" style="stroke:#181818;stroke-width:1;"/><text fill="#000000" font-family="sans-serif" font-size="10" lengthAdjust="spacing" textLength="69.375" x="651.59" y="482.6691">TCP connection</text></g><!--link ReceiverServer to ReceiverWorker--><g class="link" data-entity-1="ent0013" data-entity-2="ent0014" data-link-type="dependency" data-source-line="35" id="lnk22"><path d="M743.44,612.2969 C779.73,612.2969 825.17,612.2969 869.77,612.2969" fill="none" id="ReceiverServer-to-ReceiverWorker" style="stroke:#181818;stroke-width:1;"/><polygon fill="#181818" points="875.77,612.2969,866.77,608.2969,870.77,612.2969,866.77,616.2969,875.77,612.2969" style="stroke:#181818;stroke-width:1;"/><text fill="#000000" font-family="sans-serif" font-size="10" lengthAdjust="spacing" textLength="71.5869" x="774.16" y="609.5791">accepted socket</text></g><!--link SenderWorker to Source--><g class="link" data-entity-1="ent0006" data-entity-2="ent0008" data-link-type="dependency" data-source-line="36" id="lnk23"><path d="M152.18,266.4769 C209.77,264.7069 289.6928,262.2407 339.6128,260.7107" fill="none" id="SenderWorker-to-Source" style="stroke:#181818;stroke-width:1;"/><polygon fill="#181818" points="345.61,260.5269,336.4917,256.8045,340.6123,260.68,336.7368,264.8007,345.61,260.5269" style="stroke:#181818;stroke-width:1;"/><text fill="#000000" font-family="sans-serif" font-size="10" lengthAdjust="spacing" textLength="65.4053" x="198.97" y="260.0091">reads / hashes</text></g><!--link ReceiverWorker to ReceiveDir--><g class="link" data-entity-1="ent0014" data-entity-2="ent0016" data-link-type="dependency" data-source-line="37" id="lnk24"><path d="M1064.4,612.2969 C1119.07,612.2969 1180.08,612.2969 1225.5,612.2969" fill="none" id="ReceiverWorker-to-ReceiveDir" style="stroke:#181818;stroke-width:1;"/><polygon fill="#181818" points="1231.5,612.2969,1222.5,608.2969,1226.5,612.2969,1222.5,616.2969,1231.5,612.2969" style="stroke:#181818;stroke-width:1;"/><text fill="#000000" font-family="sans-serif" font-size="10" lengthAdjust="spacing" textLength="106.8018" x="1094.99" y="609.5791">validated write / hashes</text></g><!--link SenderUi to SenderTsm--><g class="link" data-entity-1="ent0003" data-entity-2="ent0005" data-link-type="dependency" data-source-line="38" id="lnk25"><path d="M139.98,179.9769 C186.01,179.6569 250.8701,179.2182 304.6501,178.8482" fill="none" id="SenderUi-to-SenderTsm" style="stroke:#181818;stroke-width:1;"/><polygon fill="#181818" points="310.65,178.8069,301.6227,174.8689,305.6501,178.8413,301.6777,182.8687,310.65,178.8069" style="stroke:#181818;stroke-width:1;"/><text fill="#000000" font-family="sans-serif" font-size="10" lengthAdjust="spacing" textLength="97.417" x="182.97" y="176.3391">QML intent / bindings</text></g><!--link ReceiverUi to ReceiverServer--><g class="link" data-entity-1="ent0011" data-entity-2="ent0013" data-link-type="dependency" data-source-line="39" id="lnk26"><path d="M434.33,682.0369 C480.94,669.8069 554.47,650.4269 618.03,633.2969 C627.61,630.7169 632.0733,629.5126 641.8533,626.8326" fill="none" id="ReceiverUi-to-ReceiverServer" style="stroke:#181818;stroke-width:1;"/><polygon fill="#181818" points="647.64,625.2469,637.9029,623.7677,642.8178,626.5683,640.0171,631.4832,647.64,625.2469" style="stroke:#181818;stroke-width:1;"/><text fill="#000000" font-family="sans-serif" font-size="10" lengthAdjust="spacing" textLength="122.793" x="495.03" y="630.5791">indirectly via AppController</text></g><!--link SenderSettings to SenderDiscovery--><g class="link" data-entity-1="ent0007" data-entity-2="ent0004" data-link-type="dependency" data-source-line="40" id="lnk27"><path d="M123.74,98.5069 C172.22,98.8369 261.1801,99.4457 322.4201,99.8657" fill="none" id="SenderSettings-to-SenderDiscovery" style="stroke:#181818;stroke-width:1;"/><polygon fill="#181818" points="328.42,99.9069,319.4476,95.8452,323.4201,99.8726,319.3928,103.8451,328.42,99.9069" style="stroke:#181818;stroke-width:1;"/></g><!--link ReceiverSettings to ReceiverServer--><g class="link" data-entity-1="ent0015" data-entity-2="ent0013" data-link-type="dependency" data-source-line="41" id="lnk28"><path d="M418.35,612.2969 C472.27,612.2969 577.95,612.2969 641.56,612.2969" fill="none" id="ReceiverSettings-to-ReceiverServer" style="stroke:#181818;stroke-width:1;"/><polygon fill="#181818" points="647.56,612.2969,638.56,608.2969,642.56,612.2969,638.56,616.2969,647.56,612.2969" style="stroke:#181818;stroke-width:1;"/></g><?plantuml-src bLHTQnD157tVNt79UscgLgM8K1ggGYg9IHGXBzFTkycGoSmoCub44Ipwu8Cq2kA3lla1Wg0W-86eVqQJsYV_WdVsezbDsgflCtlFENVct3DhkHK8AsNOl_jwxzlxoRFllxy-dOmVxBrvDtdxV7h_4or-tDbns_6Bdvzt9o-V4FBNXtlJBmyzWQ45gq3pJjT2m3NwbYlfcHwN4TEi3m66R23iffAsmM-wHfudLO1GcemVxSUwS47pu3hJ0HmqB04pq40Pe5wF8hZb0VYg7oc9qaAflbM5rgMsx3CkmNOriY17QF4YkiADhuQeHmtKG-vZ3dfGAZAQcaaJecwWCNIRBIPP1tMErpJz8cEJ2qnArvJkeMvB4--Wtfm_NW8WUi0issQ6dAWtq5ekEoO7opuHC5J2IPMC6cWV8QHUAJB-uDtsF5-eGG2bwlhbk51bCdDvkljg-lZZCIvVGH_vyBzypYZ_v7G6FiBhsed8ePrbHxL9wek6P_NCSftkCzCXehMlf4n2MT3ywnHcpHVcaFP9uwxqA4-eS9s31eoB4GYLYbPfuSOrbpuujxHqtWqDrg1LgS5554ArvQdLqsVEUWl-7OlEPmnckEP6BNC2bg5PlHgd249weMZQykJgIhaCIfDZH6C1jR7S83cejFMSX9CgpgEewXxzN3rFIG-q1iptCRAaR9JVGxjutYJJX7GJD7JOBZDTDDwSKawS72Vua0bEioJb6vfRd16pdqAYdZrVOhXqSsbTd9PXcyiW7lCisuVVsU7Ss6ciGyw0Niq6_Tgq4eBYL7owkOwpyC_dwf0kVm00?></g></svg>