<?plantuml 1.2026.2?><svg xmlns="http://www.w3.org/2000/svg" xmlns:xlink="http://www.w3.org/1999/xlink" contentStyleType="text/css" data-diagram-type="DESCRIPTION" height="277px" preserveAspectRatio="none" style="width:1757px;height:277px;background:#FFFFFF;" version="1.1" viewBox="0 0 1757 277" width="1757px" zoomAndPan="magnify"><title>12 &#27169;&#22359;&#20381;&#36182;&#22270;&#65306;QML &#21333;&#21521;&#25968;&#25454;&#27969;&#19982;&#23553;&#35013;&#22865;&#32422;</title><defs/><g><g class="title" data-source-line="183"><text fill="#000000" font-family="sans-serif" font-size="14" font-weight="bold" lengthAdjust="spacing" textLength="277.5523" x="733.0387" y="22.9951">12 &#27169;&#22359;&#20381;&#36182;&#22270;&#65306;QML &#21333;&#21521;&#25968;&#25454;&#27969;&#19982;&#23553;&#35013;&#22865;&#32422;</text></g><!--entity User--><g class="entity" data-qualified-name="User" data-source-line="187" id="ent0002"><ellipse cx="988.39" cy="208.0769" fill="#F1F1F1" rx="8" ry="8" style="stroke:#181818;stroke-width:0.5;"/><path d="M988.39,216.0769 L988.39,243.0769 M975.39,224.0769 L1001.39,224.0769 M988.39,243.0769 L975.39,258.0769 M988.39,243.0769 L1001.39,258.0769" fill="none" style="stroke:#181818;stroke-width:0.5;"/><text fill="#000000" font-family="sans-serif" font-size="10" lengthAdjust="spacing" textLength="20.835" x="977.9725" y="268.8591">User</text></g><!--entity Qml--><g class="entity" data-qualified-name="Qml" data-source-line="188" id="ent0003"><rect fill="#F1F1F1" height="31.6406" rx="2.5" ry="2.5" style="stroke:#181818;stroke-width:0.5;" width="63.6328" x="1263.48" y="128.5769"/><text fill="#000000" font-family="sans-serif" font-size="10" lengthAdjust="spacing" textLength="43.6328" x="1273.48" y="147.8591">QML &#24847;&#22270;</text></g><!--entity Boundary--><g class="entity" data-qualified-name="Boundary" data-source-line="189" id="ent0004"><rect fill="#F1F1F1" height="31.6406" rx="2.5" ry="2.5" style="stroke:#181818;stroke-width:0.5;" width="112.5097" x="1639.12" y="91.5769"/><text fill="#000000" font-family="sans-serif" font-size="10" lengthAdjust="spacing" textLength="92.5097" x="1649.12" y="110.8591">Q_INVOKABLE / &#20449;&#21495;</text></g><!--entity Domain--><g class="entity" data-qualified-name="Domain" data-source-line="190" id="ent0005"><rect fill="#F1F1F1" height="31.6406" rx="2.5" ry="2.5" style="stroke:#181818;stroke-width:0.5;" width="59.9999" x="549.3" y="91.5769"/><text fill="#000000" font-family="sans-serif" font-size="10" lengthAdjust="spacing" textLength="39.9999" x="559.3" y="110.8591">&#19994;&#21153;&#23545;&#35937;</text></g><!--entity State--><g class="entity" data-qualified-name="State" data-source-line="191" id="ent0006"><path d="M927.3,134.0769 C927.3,124.0769 988.3938,124.0769 988.3938,124.0769 C988.3938,124.0769 1049.4875,124.0769 1049.4875,134.0769 L1049.4875,154.7175 C1049.4875,164.7175 988.3938,164.7175 988.3938,164.7175 C988.3938,164.7175 927.3,164.7175 927.3,154.7175 L927.3,134.0769" fill="#F1F1F1" style="stroke:#181818;stroke-width:0.5;"/><path d="M927.3,134.0769 C927.3,144.0769 988.3938,144.0769 988.3938,144.0769 C988.3938,144.0769 1049.4875,144.0769 1049.4875,134.0769" fill="none" style="stroke:#181818;stroke-width:0.5;"/><text fill="#000000" font-family="sans-serif" font-size="10" lengthAdjust="spacing" textLength="102.1875" x="937.3" y="157.3591">Q_PROPERTY + NOTIFY</text></g><!--entity Snapshot--><g class="entity" data-qualified-name="Snapshot" data-source-line="192" id="ent0007"><rect fill="#F1F1F1" height="31.6406" rx="2.5" ry="2.5" style="stroke:#181818;stroke-width:0.5;" width="109.9999" x="88.15" y="91.5769"/><text fill="#000000" font-family="sans-serif" font-size="10" lengthAdjust="spacing" textLength="89.9999" x="98.15" y="110.8591">&#23553;&#35013;&#26041;&#27861;&#65288;&#20540;&#24555;&#29031;&#65289;</text></g><g class="entity" data-qualified-name="GMN15" data-source-line="203" id="ent0016"><path d="M6,158.1169 L6,214.6794 A0,0 0 0 0 6,214.6794 L280.2956,214.6794 A0,0 0 0 0 280.2956,214.6794 L280.2956,168.1169 L270.2956,158.1169 L147.15,158.1169 L143.15,123.5069 L139.15,158.1169 L6,158.1169 A0,0 0 0 0 6,158.1169" fill="#FEFFDD" style="stroke:#181818;stroke-width:0.5;"/><path d="M270.2956,158.1169 L270.2956,168.1169 L280.2956,168.1169 L270.2956,158.1169" fill="#FEFFDD" style="stroke:#181818;stroke-width:0.5;"/><text fill="#000000" font-family="sans-serif" font-size="10" lengthAdjust="spacing" textLength="203.6325" x="12" y="172.3991">QML &#19982;&#20250;&#35805;&#31649;&#29702;&#22120;&#21482;&#35835;&#19981;&#21487;&#21464;&#24555;&#29031;&#19982;&#20540;&#31867;&#22411;&#65307;</text><text fill="#000000" font-family="sans-serif" font-size="10" lengthAdjust="spacing" textLength="253.2956" x="12" y="184.0397">&#19981;&#22312;&#32593;&#32476;&#12289;&#37197;&#32622;&#12289;&#25991;&#20214;&#12289;SQLite &#20043;&#19978;&#20570;&#25955;&#28857; getter &#35843;&#29992;&#12290;</text><text fill="#000000" font-family="sans-serif" font-size="10" lengthAdjust="spacing" textLength="242.2409" x="12" y="195.6804">&#32593;&#32476;&#12289;&#25991;&#20214;&#12289;&#21327;&#35758;&#32534;&#35299;&#30721;&#12289;&#25968;&#25454;&#24211;&#35835;&#20889;&#37117;&#22312; C++ &#21518;&#31471;&#65292;</text><text fill="#000000" font-family="sans-serif" font-size="10" lengthAdjust="spacing" textLength="229.2381" x="12" y="207.321">QML &#20165;&#36890;&#36807; Q_PROPERTY / NOTIFY &#24863;&#30693;&#29366;&#24577;&#21464;&#21270;&#12290;</text></g><!--link User to Qml--><g class="link" data-entity-1="ent0002" data-entity-2="ent0003" data-link-type="dependency" data-source-line="194" id="lnk8"><path d="M1002.1,231.6069 C1046.85,218.2469 1192.1307,174.8932 1257.7207,155.3132" fill="none" id="User-to-Qml" style="stroke:#181818;stroke-width:1;"/><polygon fill="#181818" points="1263.47,153.5969,1253.7019,152.3384,1258.6789,155.0271,1255.9903,160.0042,1263.47,153.5969" style="stroke:#181818;stroke-width:1;"/></g><!--link Qml to Boundary--><g class="link" data-entity-1="ent0003" data-entity-2="ent0004" data-link-type="dependency" data-source-line="195" id="lnk9"><path d="M1327.48,143.2769 C1383.86,141.0169 1506.45,135.0069 1609.12,122.3969 C1618.81,121.2069 1623.1621,120.6462 1633.0921,118.9862" fill="none" id="Qml-to-Boundary" style="stroke:#181818;stroke-width:1;"/><polygon fill="#181818" points="1639.01,117.9969,1629.4737,115.5356,1634.0784,118.8213,1630.7927,123.4261,1639.01,117.9969" style="stroke:#181818;stroke-width:1;"/><text fill="#000000" font-family="sans-serif" font-size="10" lengthAdjust="spacing" textLength="208.999" x="1379.0917" y="107.6791">sendText / createSendSession / accept / cancel</text><text fill="#000000" font-family="sans-serif" font-size="10" lengthAdjust="spacing" textLength="250.9424" x="1358.12" y="119.3197">queryTransfers / loadMoreMessages / setRetentionDays</text></g><!--link Boundary to Domain--><g class="link" data-entity-1="ent0004" data-entity-2="ent0005" data-link-type="dependency" data-source-line="196" id="lnk10"><path d="M1639.04,96.9669 C1629.11,95.4769 1618.83,94.1869 1609.12,93.3969 C1179.51,58.3569 1067.41,43.2969 639.3,93.3969 C629.57,94.5369 624.9595,95.2769 615.5995,97.5569" fill="none" id="Boundary-to-Domain" style="stroke:#181818;stroke-width:1;"/><polygon fill="#181818" points="609.77,98.9769,619.461,100.7332,614.628,97.7935,617.5676,92.9605,609.77,98.9769" style="stroke:#181818;stroke-width:1;"/><text fill="#000000" font-family="sans-serif" font-size="10" lengthAdjust="spacing" textLength="152.8564" x="1080.48" y="58.5091">queued call &#25110; AppController &#36716;&#21457;</text></g><!--link Domain to Snapshot--><g class="link" data-entity-1="ent0005" data-entity-2="ent0007" data-link-type="dependency" data-source-line="197" id="lnk11"><path d="M560.99,123.6769 C549.97,132.8869 534.89,143.5069 519.3,148.3969 C430.66,176.1669 402.4,160.4669 310.3,148.3969 C296.61,146.6069 293.67,143.7969 280.3,140.3969 C253.43,133.5569 229.3242,127.6676 204.3742,121.6776" fill="none" id="Domain-to-Snapshot" style="stroke:#181818;stroke-width:1;"/><polygon fill="#181818" points="198.54,120.2769,206.3575,126.2674,203.4018,121.4441,208.2251,118.4884,198.54,120.2769" style="stroke:#181818;stroke-width:1;"/><text fill="#000000" font-family="sans-serif" font-size="10" lengthAdjust="spacing" textLength="207.3047" x="311.3" y="122.6791">transferEndpoint() / receiveRequestSnapshot()</text><text fill="#000000" font-family="sans-serif" font-size="10" lengthAdjust="spacing" textLength="151.8311" x="339.0368" y="134.3197">fillHelloPayload() / fillSenderInfo()</text><text fill="#000000" font-family="sans-serif" font-size="10" lengthAdjust="spacing" textLength="182.9346" x="323.4851" y="145.9604">isMyDevice() / messageToPersist(Record)</text></g><!--link Snapshot to Domain--><g class="link" data-entity-1="ent0007" data-entity-2="ent0005" data-link-type="dependency" data-source-line="198" id="lnk12"><path d="M198.26,107.3969 C290.88,107.3969 470.8,107.3969 542.84,107.3969" fill="none" id="Snapshot-to-Domain" style="stroke:#181818;stroke-width:1;"/><polygon fill="#181818" points="548.84,107.3969,539.84,103.3969,543.84,107.3969,539.84,111.3969,548.84,107.3969" style="stroke:#181818;stroke-width:1;"/><text fill="#000000" font-family="sans-serif" font-size="10" lengthAdjust="spacing" textLength="132.4609" x="348.8" y="104.6791">&#19981;&#21487;&#21464; QVariantMap / Record</text></g><!--link Domain to State--><g class="link" data-entity-1="ent0005" data-entity-2="ent0006" data-link-type="dependency" data-source-line="199" id="lnk13"><path d="M609.78,116.0369 C619.14,118.4669 629.59,120.8669 639.3,122.3969 C739.34,138.1369 851.241,142.5867 920.961,143.8667" fill="none" id="Domain-to-State" style="stroke:#181818;stroke-width:1;"/><polygon fill="#181818" points="926.96,143.9769,918.0349,139.8123,921.9608,143.8851,917.8881,147.811,926.96,143.9769" style="stroke:#181818;stroke-width:1;"/><text fill="#000000" font-family="sans-serif" font-size="10" lengthAdjust="spacing" textLength="242.7686" x="647.1433" y="107.6791">sessionsChanged / peersChanged / messagesChanged</text><text fill="#000000" font-family="sans-serif" font-size="10" lengthAdjust="spacing" textLength="256.4551" x="640.3" y="119.3197">peerUpdated / transferToPersist / retentionDaysChanged</text></g><!--link State to Qml--><g class="link" data-entity-1="ent0006" data-entity-2="ent0003" data-link-type="dependency" data-source-line="200" id="lnk14"><path d="M1049.63,144.3969 C1113.85,144.3969 1207.02,144.3969 1257.1,144.3969" fill="none" id="State-to-Qml" style="stroke:#181818;stroke-width:1;"/><polygon fill="#181818" points="1263.1,144.3969,1254.1,140.3969,1258.1,144.3969,1254.1,148.3969,1263.1,144.3969" style="stroke:#181818;stroke-width:1;"/><text fill="#000000" font-family="sans-serif" font-size="10" lengthAdjust="spacing" textLength="49.9999" x="1131.98" y="141.6791">&#22768;&#26126;&#24335;&#32465;&#23450;</text></g><?plantuml-src LLJRJXD16BxVfvXu1I44zT8B4mICHCgXBIGa96ReJil6xSowEn3hLIjo42YbKQeKKPi68M9QY04BNUHXtDbThleA_hCz01TDfl_fEym_opMk4_JW8N8FIsBla_DtppyjYDs_3Riu4Hf18hijjlBkzh6RhRYd6QUsAOupVdb9xEUzYn-AJk8SSOPCBJ77aQgP9COrHXNhfKODRE8aKaaSp-lyAQCyehq1fFkAWcEScMZI8gOY6p1D08Lx4ivzbmFiUmXRQ2Aftyc-61wT6dlU_sHa2FKXvweaSd-2kYTidghOJDqkTcf5iLOIrNF_f1GK3R8argYYOevdiHMC6m-FZG-5ezEe1usEHOUVJWU54OuvkJsgATSjdBk_jnlsgaZRukh8MpfesE-R3HGRrXpZYYBreDxUnm5p-0NdDZlq25c4gb7ocWFzc4a09WA12B4iC0nYE1OZHf34D4Rq6VfgdfYfg8cf5IUc1GcTOJN4J1A27fmWCcGH7YQSK6dw84vPIWTFWZTL0pICcYSgJDPrvAuMKBzX3C25c4pNWRD_-KlayaghMZQsHK4hRn4Oegh1DCgxkW4M_27Q0WaJ66pnTdLNzmoDQxh-ZEWw6ySfoJSebq4fbfZ3DCvacMQ5KeDaGOkHe23PL1Hbuw1KitXNcCIOgNOh7I9tv3YrhCXLHUupcfZ2feOf3s43nZIxxWYHrnbu7zXi3Sp1jO8JVSWW07NpjyMW7PcXCZzfmC84wROB7OQ12RUCR_KfJS3M5W2mA1-xdpU5dVFgUL4fAWfba9zbdBCaOl6RzP7R3w_BiOj-TS-hbBojPR5pA78__MgzexUvUl8Hfctlf2w-hZViNKMclnnwbtcl_kLVEdEzbFKkAt1m2ojE_GmEaOaH3L2TytMdjYOoHNUxxBqzHmd2kRp-uqNlu-6_z5kbCwBJAR8vlrBnx89_KFQ-PsGg-1I8Ym_0IoplN2zU0ZOQwEb1OclJEwesx8scblhITRheNwsWMq-jh_NKu9r_yxxjUsjdBc20hes2n8SLGTAV_m00?></g></svg>