<?plantuml 1.2026.2?><svg xmlns="http://www.w3.org/2000/svg" xmlns:xlink="http://www.w3.org/1999/xlink" contentStyleType="text/css" data-diagram-type="DESCRIPTION" height="522px" preserveAspectRatio="none" style="width:503px;height:522px;background:#FFFFFF;" version="1.1" viewBox="0 0 503 522" width="503px" zoomAndPan="magnify"><title>25 &#25968;&#25454;&#27969;&#22270;&#65306;&#25991;&#20214;&#25509;&#25910;</title><defs/><g><g class="title" data-source-line="86"><text fill="#000000" font-family="sans-serif" font-size="14" font-weight="bold" lengthAdjust="spacing" textLength="145.0585" x="172.2263" y="22.9951">25 &#25968;&#25454;&#27969;&#22270;&#65306;&#25991;&#20214;&#25509;&#25910;</text></g><!--entity Peer--><g class="entity" data-qualified-name="Peer" data-source-line="89" id="ent0002"><path d="M165.3958,53.5925 C168.3968,46.05 174.8277,45.7305 179.3825,52.0214 C182.5907,45.1256 188.2434,43.2969 193.7586,49.4869 C198.5204,43.818 204.5005,43.741 207.4972,51.3178 C212.1053,45.7181 217.5871,46.9853 220.398,53.2689 C230.1665,52.9769 232.1635,57.4982 228.7587,65.9152 C232.0446,75.3227 229.2941,79.7393 219.0337,79.3161 C217.688,87.34 212.6849,89.7526 206.207,84.1456 C203.4689,90.5628 197.6605,92.6804 192.897,86.2427 C187.5201,91.8075 182.0673,89.2338 179.5897,82.9786 C174.5182,88.2219 169.8118,86.7415 166.8602,80.6069 C159.5333,78.6291 157.3411,73.0827 162.4181,67.0427 C156.603,61.4118 158.2238,56.3483 165.3958,53.5925" fill="#F1F1F1" style="stroke:#181818;stroke-width:0.5;"/><text fill="#000000" font-family="sans-serif" font-size="10" lengthAdjust="spacing" textLength="40.1318" x="171.73" y="69.254">TCP peer</text></g><!--entity P2p--><g class="entity" data-qualified-name="P2p" data-source-line="90" id="ent0003"><rect fill="#F1F1F1" height="31.6406" rx="2.5" ry="2.5" style="stroke:#181818;stroke-width:0.5;" width="65.791" x="31.9" y="159.6118"/><text fill="#000000" font-family="sans-serif" font-size="10" lengthAdjust="spacing" textLength="45.791" x="41.9" y="178.894">P2pServer</text></g><!--entity Receiver--><g class="entity" data-qualified-name="Receiver" data-source-line="91" id="ent0004"><rect fill="#F1F1F1" height="43.2813" rx="2.5" ry="2.5" style="stroke:#181818;stroke-width:0.5;" width="114.9414" x="134.33" y="264.2518"/><text fill="#000000" font-family="sans-serif" font-size="10" lengthAdjust="spacing" textLength="86.2891" x="144.33" y="283.534">FileReceiverWorker</text><text fill="#000000" font-family="sans-serif" font-size="10" lengthAdjust="spacing" textLength="94.9414" x="144.33" y="295.1746">background QThread</text></g><!--entity Codec--><g class="entity" data-qualified-name="Codec" data-source-line="92" id="ent0005"><rect fill="#F1F1F1" height="31.6406" rx="2.5" ry="2.5" style="stroke:#181818;stroke-width:0.5;" width="76.1621" x="153.72" y="159.6118"/><text fill="#000000" font-family="sans-serif" font-size="10" lengthAdjust="spacing" textLength="56.1621" x="163.72" y="178.894">FrameCodec</text></g><!--entity Tsm--><g class="entity" data-qualified-name="Tsm" data-source-line="93" id="ent0006"><rect fill="#F1F1F1" height="31.6406" rx="2.5" ry="2.5" style="stroke:#181818;stroke-width:0.5;" width="131.0596" x="42.27" y="380.5318"/><text fill="#000000" font-family="sans-serif" font-size="10" lengthAdjust="spacing" textLength="111.0596" x="52.27" y="399.814">TransferSessionManager</text></g><!--entity Dialog--><g class="entity" data-qualified-name="Dialog" data-source-line="94" id="ent0007"><rect fill="#F1F1F1" height="31.6406" rx="2.5" ry="2.5" style="stroke:#181818;stroke-width:0.5;" width="78.2129" x="68.69" y="485.1718"/><text fill="#000000" font-family="sans-serif" font-size="10" lengthAdjust="spacing" textLength="58.2129" x="78.69" y="504.454">AcceptDialog</text></g><!--entity Target--><g class="entity" data-qualified-name="Target" data-source-line="95" id="ent0008"><path d="M297.8,383.0318 L297.8,409.6724 A2.5,2.5 0 0 0 300.3,412.1724 L355.2999,412.1724 A2.5,2.5 0 0 0 357.7999,409.6724 L357.7999,390.5318 L347.7999,380.5318 L300.3,380.5318 A2.5,2.5 0 0 0 297.8,383.0318" fill="#F1F1F1" style="stroke:#181818;stroke-width:0.5;"/><path d="M347.7999,380.5318 L347.7999,388.0318 A2.5,2.5 0 0 0 350.2999,390.5318 L357.7999,390.5318" fill="#F1F1F1" style="stroke:#181818;stroke-width:0.5;"/><text fill="#000000" font-family="sans-serif" font-size="10" lengthAdjust="spacing" textLength="39.9999" x="307.8" y="399.814">&#25509;&#25910;&#30446;&#24405;</text></g><!--link Peer to P2p--><g class="link" data-entity-1="ent0002" data-entity-2="ent0003" data-link-type="dependency" data-source-line="97" id="lnk9"><path d="M167.91,87.0318 C143.19,107.9818 109.717,136.3523 87.407,155.2623" fill="none" id="Peer-to-P2p" style="stroke:#181818;stroke-width:1;"/><polygon fill="#181818" points="82.83,159.1418,92.2819,156.3739,86.6442,155.9089,87.1092,150.2711,82.83,159.1418" style="stroke:#181818;stroke-width:1;"/><text fill="#000000" font-family="sans-serif" font-size="10" lengthAdjust="spacing" textLength="48.1934" x="133.11" y="126.894">TCP socket</text></g><!--link P2p to Receiver--><g class="link" data-entity-1="ent0003" data-entity-2="ent0004" data-link-type="dependency" data-source-line="98" id="lnk10"><path d="M63.03,191.7518 C62.4,204.4018 63.56,222.1718 72.8,234.2518 C87.67,253.6918 105.7566,263.8582 128.1566,271.3082" fill="none" id="P2p-to-Receiver" style="stroke:#181818;stroke-width:1;"/><polygon fill="#181818" points="133.85,273.2018,126.5723,266.5659,129.1055,271.6238,124.0476,274.157,133.85,273.2018" style="stroke:#181818;stroke-width:1;"/><text fill="#000000" font-family="sans-serif" font-size="10" lengthAdjust="spacing" textLength="106.084" x="73.8" y="231.534">socket moved to thread</text></g><!--link Peer to Codec--><g class="link" data-entity-1="ent0002" data-entity-2="ent0005" data-link-type="dependency" data-source-line="99" id="lnk11"><path d="M191.8,87.0318 C191.8,107.9818 191.8,134.2318 191.8,153.1418" fill="none" id="Peer-to-Codec" style="stroke:#181818;stroke-width:1;"/><polygon fill="#181818" points="191.8,159.1418,195.8,150.1418,191.8,154.1418,187.8,150.1418,191.8,159.1418" style="stroke:#181818;stroke-width:1;"/><text fill="#000000" font-family="sans-serif" font-size="10" lengthAdjust="spacing" textLength="42.3779" x="192.8" y="126.894">TLV bytes</text></g><!--link Codec to Receiver--><g class="link" data-entity-1="ent0005" data-entity-2="ent0004" data-link-type="dependency" data-source-line="100" id="lnk12"><path d="M190.55,191.3518 C189.88,200.0718 189.13,211.2718 188.8,221.2518 C188.32,235.5118 188.6704,245.5765 189.5404,257.9865" fill="none" id="Codec-to-Receiver" style="stroke:#181818;stroke-width:1;"/><polygon fill="#181818" points="189.96,263.9718,193.3208,254.7141,189.6103,258.984,185.3404,255.2735,189.96,263.9718" style="stroke:#181818;stroke-width:1;"/><text fill="#000000" font-family="sans-serif" font-size="10" lengthAdjust="spacing" textLength="183.3545" x="189.8" y="231.534">TransferReq / DataChunk / TransferDone</text></g><!--link Receiver to Tsm--><g class="link" data-entity-1="ent0004" data-entity-2="ent0006" data-link-type="dependency" data-source-line="101" id="lnk13"><path d="M134.05,296.3018 C89.68,304.8518 33.69,318.9618 19.8,337.5318 C6,355.9718 21.5111,368.089 46.5011,377.849" fill="none" id="Receiver-to-Tsm" style="stroke:#181818;stroke-width:1;"/><polygon fill="#181818" points="52.09,380.0318,45.1619,373.0317,47.4326,378.2128,42.2515,380.4835,52.09,380.0318" style="stroke:#181818;stroke-width:1;"/><text fill="#000000" font-family="sans-serif" font-size="10" lengthAdjust="spacing" textLength="127.3242" x="20.8" y="347.814">request / progress / finished</text></g><!--link Tsm to Receiver--><g class="link" data-entity-1="ent0006" data-entity-2="ent0004" data-link-type="dependency" data-source-line="104" id="lnk16"><path d="M125.02,380.0418 C133.85,371.7618 144.46,361.0818 152.8,350.5318 C163.4,337.1118 170.4961,325.8399 177.7261,312.9999" fill="none" id="Tsm-to-Receiver" style="stroke:#181818;stroke-width:1;"/><polygon fill="#181818" points="180.67,307.7718,172.7687,313.6514,178.2168,312.1286,179.7396,317.5766,180.67,307.7718" style="stroke:#181818;stroke-width:1;"/><text fill="#000000" font-family="sans-serif" font-size="10" lengthAdjust="spacing" textLength="94.9902" x="162.26" y="347.814">queued accept/reject</text></g><!--link Tsm to Dialog--><g class="link" data-entity-1="ent0006" data-entity-2="ent0007" data-link-type="dependency" data-source-line="102" id="lnk14"><path d="M66.13,412.5118 C53.1,419.4518 40.21,429.1118 32.8,442.1718 C21.48,462.1218 39.2367,475.1717 62.7767,485.0417" fill="none" id="Tsm-to-Dialog" style="stroke:#181818;stroke-width:1;"/><polygon fill="#181818" points="68.31,487.3618,61.5567,480.1929,63.6989,485.4284,58.4634,487.5706,68.31,487.3618" style="stroke:#181818;stroke-width:1;"/><text fill="#000000" font-family="sans-serif" font-size="10" lengthAdjust="spacing" textLength="103.5303" x="33.8" y="452.454">confirmation metadata</text></g><!--link Dialog to Tsm--><g class="link" data-entity-1="ent0007" data-entity-2="ent0006" data-link-type="dependency" data-source-line="103" id="lnk15"><path d="M125.16,485.1318 C136.03,473.9218 147.07,457.8418 141.8,442.1718 C138.06,431.0618 134.3327,425.0182 127.2027,416.9482" fill="none" id="Dialog-to-Tsm" style="stroke:#181818;stroke-width:1;"/><polygon fill="#181818" points="123.23,412.4518,126.1914,421.8449,126.5406,416.1988,132.1866,416.548,123.23,412.4518" style="stroke:#181818;stroke-width:1;"/><text fill="#000000" font-family="sans-serif" font-size="10" lengthAdjust="spacing" textLength="69.4189" x="144.15" y="452.454">accept or reject</text></g><!--link Receiver to Target--><g class="link" data-entity-1="ent0004" data-entity-2="ent0008" data-link-type="dependency" data-source-line="105" id="lnk17"><path d="M224.1,307.9118 C237.04,316.6818 251.91,327.2218 264.8,337.5318 C281.84,351.1618 295.7669,364.0308 308.2169,376.0708" fill="none" id="Receiver-to-Target" style="stroke:#181818;stroke-width:1;"/><polygon fill="#181818" points="312.53,380.2418,308.8411,371.1099,308.9358,376.7659,303.2797,376.8606,312.53,380.2418" style="stroke:#181818;stroke-width:1;"/><text fill="#000000" font-family="sans-serif" font-size="10" lengthAdjust="spacing" textLength="103.2959" x="280.17" y="347.814">validated paths + bytes</text></g><!--link Receiver to Peer--><g class="link" data-entity-1="ent0004" data-entity-2="ent0002" data-link-type="dependency" data-source-line="106" id="lnk18"><path d="M249.4,276.9318 C298.02,268.8918 362.15,254.7218 377.8,234.2518 C429.24,166.9218 299.9942,107.1449 232.8142,81.4549" fill="none" id="Receiver-to-Peer" style="stroke:#181818;stroke-width:1;"/><polygon fill="#181818" points="227.21,79.3118,234.1876,86.2625,231.8802,81.0977,237.045,78.7903,227.21,79.3118" style="stroke:#181818;stroke-width:1;"/><text fill="#000000" font-family="sans-serif" font-size="10" lengthAdjust="spacing" textLength="107.041" x="388.47" y="179.214">TransferRsp / ChunkAck</text></g><?plantuml-src NL2nRjH04EttAqRNHb7W99eKID6ThYBI9MT1GpDPZtsBxLrdTdqIT5HKK14AKjD6DAG9y3N4bFm2i-kxn4atclVcpNilc50JJ9z1V_6z_tZL_tX_U_dxty-l_PSFVswk-q_V-i_NobV6jiZOG4u5TdLOE1jMvXt1qoTAwTfrEKoosH9Q8fu0UbZAe9XqG5kA_dBQheWtn0cRjYDeiZ0rdP8c8_0hnnNnQtk6kYhPTJQ7aspDX7bItT56vmjnHJENauw4D8pGZD7wWdX5tXjdZz5YEPZ8V3FY7MbDRPWRh5qPqM5IXOa6XnB-NbxT_hf8DZBaae9ICIJixp-FYU0GOW7UwKgWk8Z0ph2W0mADsr0EmK58iUurXWoYyk8bdBqDvDMmUIIpItHAvt00SmmuMtUsadc7p9qbTNSHpoMhN3ATT-I3C5js9KiZCXR66h-cN4LEv6uxE0JjR66umI2zGKC1S_cbjl2zAgRcmB7elv4-xuH6dkLl9w47wi6Mzz1XQbIe6woDF19sYs7jOM_RnGDswcnKXMybIQhXI5V_0G00?></g></svg>