<?plantuml 1.2026.2?><svg xmlns="http://www.w3.org/2000/svg" xmlns:xlink="http://www.w3.org/1999/xlink" contentStyleType="text/css" data-diagram-type="DESCRIPTION" height="684px" preserveAspectRatio="none" style="width:1015px;height:684px;background:#FFFFFF;" version="1.1" viewBox="0 0 1015 684" width="1015px" zoomAndPan="magnify"><title>29 &#25968;&#25454;&#27969;&#22270;&#65306;&#25991;&#20214;&#21457;&#36865;</title><defs/><g><g class="title" data-source-line="63"><text fill="#000000" font-family="sans-serif" font-size="14" font-weight="bold" lengthAdjust="spacing" textLength="145.0584" x="428.424" y="22.9951">29 &#25968;&#25454;&#27969;&#22270;&#65306;&#25991;&#20214;&#21457;&#36865;</text></g><!--entity User--><g class="entity" data-qualified-name="User" data-source-line="66" id="ent0002"><ellipse cx="452.02" cy="51.2969" fill="#F1F1F1" rx="8" ry="8" style="stroke:#181818;stroke-width:0.5;"/><path d="M452.02,59.2969 L452.02,86.2969 M439.02,67.2969 L465.02,67.2969 M452.02,86.2969 L439.02,101.2969 M452.02,86.2969 L465.02,101.2969" fill="none" style="stroke:#181818;stroke-width:0.5;"/><text fill="#000000" font-family="sans-serif" font-size="10" lengthAdjust="spacing" textLength="20.835" x="441.6025" y="112.0791">User</text></g><!--entity Qml--><g class="entity" data-qualified-name="Qml" data-source-line="67" id="ent0003"><rect fill="#F1F1F1" height="31.6406" rx="2.5" ry="2.5" style="stroke:#181818;stroke-width:0.5;" width="112.5585" x="395.74" y="175.4369"/><text fill="#000000" font-family="sans-serif" font-size="10" lengthAdjust="spacing" textLength="92.5585" x="405.74" y="194.7191">QML &#25991;&#20214;&#36873;&#25321; / &#25302;&#25341;</text></g><!--entity Tsm--><g class="entity" data-qualified-name="Tsm" data-source-line="68" id="ent0004"><rect fill="#F1F1F1" height="31.6406" rx="2.5" ry="2.5" style="stroke:#181818;stroke-width:0.5;" width="131.0596" x="386.49" y="280.0769"/><text fill="#000000" font-family="sans-serif" font-size="10" lengthAdjust="spacing" textLength="111.0596" x="396.49" y="299.3591">TransferSessionManager</text></g><!--entity Discovery--><g class="entity" data-qualified-name="Discovery" data-source-line="69" id="ent0005"><rect fill="#F1F1F1" height="31.6406" rx="2.5" ry="2.5" style="stroke:#181818;stroke-width:0.5;" width="95.249" x="63.39" y="404.7169"/><text fill="#000000" font-family="sans-serif" font-size="10" lengthAdjust="spacing" textLength="75.249" x="73.39" y="423.9991">DiscoveryService</text></g><!--entity Config--><g class="entity" data-qualified-name="Config" data-source-line="70" id="ent0006"><rect fill="#F1F1F1" height="31.6406" rx="2.5" ry="2.5" style="stroke:#181818;stroke-width:0.5;" width="88.4766" x="336.78" y="404.7169"/><text fill="#000000" font-family="sans-serif" font-size="10" lengthAdjust="spacing" textLength="68.4766" x="346.78" y="423.9991">ConfigManager</text></g><!--entity Sender--><g class="entity" data-qualified-name="Sender" data-source-line="71" id="ent0007"><rect fill="#F1F1F1" height="31.6406" rx="2.5" ry="2.5" style="stroke:#181818;stroke-width:0.5;" width="99.9707" x="564.03" y="404.7169"/><text fill="#000000" font-family="sans-serif" font-size="10" lengthAdjust="spacing" textLength="79.9707" x="574.03" y="423.9991">FileSenderWorker</text></g><!--entity Dir--><g class="entity" data-qualified-name="Dir" data-source-line="72" id="ent0008"><rect fill="#F1F1F1" height="31.6406" rx="2.5" ry="2.5" style="stroke:#181818;stroke-width:0.5;" width="74.7705" x="505.63" y="529.3569"/><text fill="#000000" font-family="sans-serif" font-size="10" lengthAdjust="spacing" textLength="54.7705" x="515.63" y="548.6391">DirSerializer</text></g><!--entity Codec--><g class="entity" data-qualified-name="Codec" data-source-line="73" id="ent0009"><rect fill="#F1F1F1" height="31.6406" rx="2.5" ry="2.5" style="stroke:#181818;stroke-width:0.5;" width="76.1621" x="646.94" y="529.3569"/><text fill="#000000" font-family="sans-serif" font-size="10" lengthAdjust="spacing" textLength="56.1621" x="656.94" y="548.6391">FrameCodec</text></g><!--entity Source--><g class="entity" data-qualified-name="Source" data-source-line="74" id="ent0010"><path d="M508.02,641.4969 L508.02,668.1375 A2.5,2.5 0 0 0 510.52,670.6375 L575.5199,670.6375 A2.5,2.5 0 0 0 578.0199,668.1375 L578.0199,648.9969 L568.0199,638.9969 L510.52,638.9969 A2.5,2.5 0 0 0 508.02,641.4969" fill="#F1F1F1" style="stroke:#181818;stroke-width:0.5;"/><path d="M568.0199,638.9969 L568.0199,646.4969 A2.5,2.5 0 0 0 570.5199,648.9969 L578.0199,648.9969" fill="#F1F1F1" style="stroke:#181818;stroke-width:0.5;"/><text fill="#000000" font-family="sans-serif" font-size="10" lengthAdjust="spacing" textLength="49.9999" x="518.02" y="658.2791">&#26412;&#22320;&#28304;&#25991;&#20214;</text></g><!--entity Peer--><g class="entity" data-qualified-name="Peer" data-source-line="75" id="ent0011"><path d="M658.5228,643.5629 C661.7018,635.2621 666.6332,633.4782 673.2236,640.2317 C675.8979,633.4906 682.0243,633.7383 685.5023,639.4385 C689.9838,632.921 694.7917,633.1023 698.4823,640.1928 C704.5835,634.4789 710.8307,635.0002 713.0773,644.013 C721.4713,643.4381 724.4253,648.7695 721.4192,656.0772 C724.9017,663.4324 721.9634,670.8353 712.4086,669.3193 C709.6749,676.002 704.5279,676.5838 700.3236,670.7378 C695.5122,677.0093 690.2769,677.2285 685.3215,670.9093 C679.9669,675.7613 675.7115,676.5905 672.2521,668.9298 C668.1413,675.8104 662.4652,675.0365 658.3215,668.9651 C650.3329,667.2483 648.8741,663.1176 654.1689,656.8483 C649.1208,650.0525 651.1374,646.2841 658.5228,643.5629" fill="#F1F1F1" style="stroke:#181818;stroke-width:0.5;"/><text fill="#000000" font-family="sans-serif" font-size="10" lengthAdjust="spacing" textLength="39.58" x="665.23" y="658.2791">TCP &#23545;&#31471;</text></g><!--entity AppController--><g class="entity" data-qualified-name="AppController" data-source-line="89" id="ent0024"><ellipse cx="903.0171" cy="393.2169" fill="#F1F1F1" rx="8" ry="8" style="stroke:#181818;stroke-width:0.5;"/><path d="M903.0171,401.2169 L903.0171,428.2169 M890.0171,409.2169 L916.0171,409.2169 M903.0171,428.2169 L890.0171,443.2169 M903.0171,428.2169 L916.0171,443.2169" fill="none" style="stroke:#181818;stroke-width:0.5;"/><text fill="#000000" font-family="sans-serif" font-size="10" lengthAdjust="spacing" textLength="63.1543" x="871.44" y="453.9991">AppController</text></g><!--link User to Qml--><g class="link" data-entity-1="ent0002" data-entity-2="ent0003" data-link-type="dependency" data-source-line="77" id="lnk12"><path d="M452.02,114.9269 C452.02,135.1669 452.02,153.5269 452.02,168.9569" fill="none" id="User-to-Qml" style="stroke:#181818;stroke-width:1;"/><polygon fill="#181818" points="452.02,174.9569,456.02,165.9569,452.02,169.9569,448.02,165.9569,452.02,174.9569" style="stroke:#181818;stroke-width:1;"/></g><!--link Qml to Tsm--><g class="link" data-entity-1="ent0003" data-entity-2="ent0004" data-link-type="dependency" data-source-line="78" id="lnk13"><path d="M410.35,207.4169 C397.32,214.3469 384.43,224.0169 377.02,237.0769 C366.63,255.3769 379.9348,267.317 401.2848,277.197" fill="none" id="Qml-to-Tsm" style="stroke:#181818;stroke-width:1;"/><polygon fill="#181818" points="406.73,279.7169,400.2421,272.307,402.1923,277.617,396.8823,279.5672,406.73,279.7169" style="stroke:#181818;stroke-width:1;"/><text fill="#000000" font-family="sans-serif" font-size="10" lengthAdjust="spacing" textLength="102.9883" x="378.02" y="247.3591">deviceId, selected path</text></g><!--link Tsm to Qml--><g class="link" data-entity-1="ent0004" data-entity-2="ent0003" data-link-type="dependency" data-source-line="88" id="lnk23"><path d="M468.87,279.9869 C479.43,268.7569 490.14,252.6669 485.02,237.0769 C481.4,226.0569 477.8229,220.074 470.9029,211.994" fill="none" id="Tsm-to-Qml" style="stroke:#181818;stroke-width:1;"/><polygon fill="#181818" points="467,207.4369,469.8162,216.8745,470.2524,211.2345,475.8924,211.6706,467,207.4369" style="stroke:#181818;stroke-width:1;"/><text fill="#000000" font-family="sans-serif" font-size="10" lengthAdjust="spacing" textLength="141.6797" x="487.34" y="247.3591">sessionsChanged / notifications</text></g><!--link Tsm to Discovery--><g class="link" data-entity-1="ent0004" data-entity-2="ent0005" data-link-type="dependency" data-source-line="79" id="lnk14"><path d="M386.09,299.0869 C272.7,303.5469 50.56,315.5569 27.02,341.7169 C6,365.0569 37.5233,386.6353 68.8633,401.7153" fill="none" id="Tsm-to-Discovery" style="stroke:#181818;stroke-width:1;"/><polygon fill="#181818" points="74.27,404.3169,67.8944,396.8101,69.7645,402.1489,64.4256,404.019,74.27,404.3169" style="stroke:#181818;stroke-width:1;"/><text fill="#000000" font-family="sans-serif" font-size="10" lengthAdjust="spacing" textLength="120.0732" x="28.02" y="351.9991">transferEndpoint(deviceId)</text></g><!--link Discovery to Tsm--><g class="link" data-entity-1="ent0005" data-entity-2="ent0004" data-link-type="dependency" data-source-line="80" id="lnk15"><path d="M126.64,404.3269 C145.97,386.4269 180.68,357.1869 216.02,341.7169 C270.46,317.8769 331.4443,307.3279 380.1143,302.0979" fill="none" id="Discovery-to-Tsm" style="stroke:#181818;stroke-width:1;"/><polygon fill="#181818" points="386.08,301.4569,376.7041,298.4414,381.1086,301.9911,377.5589,306.3956,386.08,301.4569" style="stroke:#181818;stroke-width:1;"/><text fill="#000000" font-family="sans-serif" font-size="10" lengthAdjust="spacing" textLength="147.9345" x="217.02" y="351.9991">&#19981;&#21487;&#21464;&#24555;&#29031; {ip, tcpPort, isOnline}</text></g><!--link Tsm to Config--><g class="link" data-entity-1="ent0004" data-entity-2="ent0006" data-link-type="dependency" data-source-line="81" id="lnk16"><path d="M410.89,312.1769 C398.04,319.1269 385.32,328.7569 378.02,341.7169 C367.07,361.1469 369.8983,382.0691 374.4183,398.6091" fill="none" id="Tsm-to-Config" style="stroke:#181818;stroke-width:1;"/><polygon fill="#181818" points="376,404.3969,377.486,394.6608,374.6819,399.5737,369.769,396.7697,376,404.3969" style="stroke:#181818;stroke-width:1;"/><text fill="#000000" font-family="sans-serif" font-size="10" lengthAdjust="spacing" textLength="100.1758" x="379.02" y="351.9991">fillSenderInfo(session)</text></g><!--link Tsm to Sender--><g class="link" data-entity-1="ent0004" data-entity-2="ent0007" data-link-type="dependency" data-source-line="82" id="lnk17"><path d="M468.95,312.1169 C482.47,324.0769 502.06,340.9469 520.02,354.7169 C543.46,372.6869 566.443,388.3908 585.753,401.1408" fill="none" id="Tsm-to-Sender" style="stroke:#181818;stroke-width:1;"/><polygon fill="#181818" points="590.76,404.4469,585.4535,396.1498,586.5875,401.6919,581.0455,402.8258,590.76,404.4469" style="stroke:#181818;stroke-width:1;"/><text fill="#000000" font-family="sans-serif" font-size="10" lengthAdjust="spacing" textLength="141.7969" x="521.02" y="351.9991">host, port, sender identity, path</text></g><!--link Sender to Tsm--><g class="link" data-entity-1="ent0007" data-entity-2="ent0004" data-link-type="dependency" data-source-line="87" id="lnk22"><path d="M636.57,404.3669 C657.74,388.2869 683.83,362.3869 667.02,341.7169 C648.44,318.8569 579.9403,307.8626 523.8203,302.2626" fill="none" id="Sender-to-Tsm" style="stroke:#181818;stroke-width:1;"/><polygon fill="#181818" points="517.85,301.6669,526.4084,306.5407,522.8253,302.1633,527.2027,298.5803,517.85,301.6669" style="stroke:#181818;stroke-width:1;"/><text fill="#000000" font-family="sans-serif" font-size="10" lengthAdjust="spacing" textLength="155.1123" x="673.27" y="351.9991">progress / completion / error code</text></g><!--link Sender to Dir--><g class="link" data-entity-1="ent0007" data-entity-2="ent0008" data-link-type="dependency" data-source-line="83" id="lnk18"><path d="M587.18,436.7169 C570.19,447.9769 549.68,465.0469 540.02,486.3569 C533.87,499.9069 534.5103,511.2661 537.2603,523.3661" fill="none" id="Sender-to-Dir" style="stroke:#181818;stroke-width:1;"/><polygon fill="#181818" points="538.59,529.2169,540.4959,519.5542,537.4819,524.3412,532.6949,521.3272,538.59,529.2169" style="stroke:#181818;stroke-width:1;"/><text fill="#000000" font-family="sans-serif" font-size="10" lengthAdjust="spacing" textLength="100.9277" x="541.02" y="496.6391">FileItem list + SHA-256</text></g><!--link Dir to Source--><g class="link" data-entity-1="ent0008" data-entity-2="ent0010" data-link-type="dependency" data-source-line="84" id="lnk19"><path d="M543.02,561.1469 C543.02,581.5969 543.02,612.0669 543.02,632.6269" fill="none" id="Dir-to-Source" style="stroke:#181818;stroke-width:1;"/><polygon fill="#181818" points="543.02,638.6269,547.02,629.6269,543.02,633.6269,539.02,629.6269,543.02,638.6269" style="stroke:#181818;stroke-width:1;"/><text fill="#000000" font-family="sans-serif" font-size="10" lengthAdjust="spacing" textLength="80" x="544.02" y="601.2791">enumerate / hash</text></g><!--link Sender to Codec--><g class="link" data-entity-1="ent0007" data-entity-2="ent0009" data-link-type="dependency" data-source-line="85" id="lnk20"><path d="M622.87,436.8169 C636.55,460.4469 659.6649,500.3737 673.2749,523.8937" fill="none" id="Sender-to-Codec" style="stroke:#181818;stroke-width:1;"/><polygon fill="#181818" points="676.28,529.0869,675.2345,519.2937,673.7758,524.7592,668.3102,523.3004,676.28,529.0869" style="stroke:#181818;stroke-width:1;"/><text fill="#000000" font-family="sans-serif" font-size="10" lengthAdjust="spacing" textLength="183.3545" x="658.96" y="496.6391">TransferReq / DataChunk / TransferDone</text></g><!--link Codec to Peer--><g class="link" data-entity-1="ent0009" data-entity-2="ent0011" data-link-type="dependency" data-source-line="86" id="lnk21"><path d="M685.02,561.1469 C685.02,580.0869 685.02,606.7969 685.02,627.8569" fill="none" id="Codec-to-Peer" style="stroke:#181818;stroke-width:1;"/><polygon fill="#181818" points="685.02,633.8569,689.02,624.8569,685.02,628.8569,681.02,624.8569,685.02,633.8569" style="stroke:#181818;stroke-width:1;"/><text fill="#000000" font-family="sans-serif" font-size="10" lengthAdjust="spacing" textLength="71.9727" x="686.02" y="601.2791">TLV byte stream</text></g><!--link Tsm to AppController--><g class="link" data-entity-1="ent0004" data-entity-2="ent0024" data-link-type="dependency" data-source-line="89" id="lnk25"><path d="M517.97,298.7769 C613.1,302.4669 783.33,312.9669 837.02,341.7169 C855.29,351.4969 867.1461,363.7263 878.4261,379.4063" fill="none" id="Tsm-to-AppController" style="stroke:#181818;stroke-width:1;"/><polygon fill="#181818" points="881.93,384.2769,879.9213,374.635,879.0101,380.218,873.4271,379.3069,881.93,384.2769" style="stroke:#181818;stroke-width:1;"/><text fill="#000000" font-family="sans-serif" font-size="10" lengthAdjust="spacing" textLength="151.8164" x="856.09" y="351.9991">transferToPersist(TransferRecord)</text></g><?plantuml-src LPFFQnD15CVl-rSyScemeLfGC0UX90OBBQPkrFEu-v8CdPrPPoQ5A49xa2AXH0yMqTv5AhONnT_-CzqjFVal-6OdsQo7XPbvd_Tzyxvlrd8h4DPkGlxwB3_yb7_Upzxz_llpRNvqSFxZIpPxTRct7vWTBbEcMG8n3jXOsAwIDkHF4AvT3G8MMQNXla4TQ8miaqDIh6rlRO8NkTnxaKy_m2haqwDy-gi6pC1s8YfmNpDf1gX3D8OhkSKa6w9sNDya5Qx3JQHsKKz2rBiyGaUKPnMkhUI03oio_g12TBd046MC-g7IEnxo-seF7KvNqfm9QbNNVBKgq2LBiArYZ7mHMWG3xZBpuu_PyLd-_QMteCWDrLX764H2ZMEezTizo4w_NPoS5i4UKkd0cGZDvgt27_gADNa0BNBUTRmHDy2We1jW32cpey157LNwGAoT-tbRngdYqguiakl14bjAdtyzp6QdsUnDzkVaulbxUChJ1jWexIbj6y3DNIcun6TbAUyc9LAlmhks8GTgnVZnrKlGnmWSAKDAQQ5d_26FKLfk9mtVnXprdRWKDw4DYma8RYnSWV3EUdFj-et0HGljmaq2KOuJrCmYlR0HC_z9-TcqoWTs3nyJrM6MjKTZkKFhHQIZ90OUTubk72vlym4ycf2qiHfPKfNsrgLQ3JMrJKgHIbA1bWoW3MfD_qH4UgKPRfmjc7jasYDwGZJ3LP3AyW6FcCiq9RsUfcIprKg8uYQBaVPL3xKXIrQMFKLAn_L_?></g></svg>