<?plantuml 1.2026.2?><svg xmlns="http://www.w3.org/2000/svg" xmlns:xlink="http://www.w3.org/1999/xlink" contentStyleType="text/css" data-diagram-type="STATE" height="904px" preserveAspectRatio="none" style="width:1092px;height:904px;background:#FFFFFF;" version="1.1" viewBox="0 0 1092 904" width="1092px" zoomAndPan="magnify"><title>35 &#29366;&#24577;&#22270;&#65306;&#25509;&#25910;&#20250;&#35805;</title><defs/><g><g class="title" data-source-line="39"><text fill="#000000" font-family="sans-serif" font-size="14" font-weight="bold" lengthAdjust="spacing" textLength="131.0583" x="473.6828" y="22.9951">35 &#29366;&#24577;&#22270;&#65306;&#25509;&#25910;&#20250;&#35805;</text></g><g class="start_entity" data-qualified-name=".start." data-source-line="43" id="ent0002"><ellipse cx="609" cy="53.2969" fill="#222222" rx="10" ry="10" style="stroke:#222222;stroke-width:1;"/></g><rect fill="#F1F1F1" height="40" rx="12.5" ry="12.5" style="stroke:#181818;stroke-width:0.5;" width="91.9385" x="563.03" y="136.2969"/><text fill="#000000" font-family="sans-serif" font-size="10" lengthAdjust="spacing" textLength="81.9385" x="568.03" y="159.7588">validating_request</text><rect fill="#F1F1F1" height="40" rx="12.5" ry="12.5" style="stroke:#181818;stroke-width:0.5;" width="50" x="685" y="638.2169"/><text fill="#000000" font-family="sans-serif" font-size="10" lengthAdjust="spacing" textLength="24.9854" x="697.5073" y="661.6788">failed</text><rect fill="#F1F1F1" height="40" rx="12.5" ry="12.5" style="stroke:#181818;stroke-width:0.5;" width="81.6309" x="259.18" y="251.7569"/><text fill="#000000" font-family="sans-serif" font-size="10" lengthAdjust="spacing" textLength="71.6309" x="264.18" y="275.2188">waiting_confirm</text><rect fill="#F1F1F1" height="40" rx="12.5" ry="12.5" style="stroke:#181818;stroke-width:0.5;" width="63.3643" x="432.32" y="382.2169"/><text fill="#000000" font-family="sans-serif" font-size="10" lengthAdjust="spacing" textLength="53.3643" x="437.32" y="405.6788">transferring</text><rect fill="#F1F1F1" height="40" rx="12.5" ry="12.5" style="stroke:#181818;stroke-width:0.5;" width="50" x="24" y="455.2169"/><text fill="#000000" font-family="sans-serif" font-size="10" lengthAdjust="spacing" textLength="36.5088" x="30.7456" y="478.6788">rejected</text><rect fill="#F1F1F1" height="40" rx="12.5" ry="12.5" style="stroke:#181818;stroke-width:0.5;" width="52.1924" x="235.9" y="525.2169"/><text fill="#000000" font-family="sans-serif" font-size="10" lengthAdjust="spacing" textLength="42.1924" x="240.9" y="548.6788">cancelled</text><rect fill="#F1F1F1" height="40" rx="12.5" ry="12.5" style="stroke:#181818;stroke-width:0.5;" width="50" x="476" y="525.2169"/><text fill="#000000" font-family="sans-serif" font-size="10" lengthAdjust="spacing" textLength="38.5547" x="481.7227" y="548.6788">verifying</text><rect fill="#F1F1F1" height="40" rx="12.5" ry="12.5" style="stroke:#181818;stroke-width:0.5;" width="57.7588" x="369.12" y="638.2169"/><text fill="#000000" font-family="sans-serif" font-size="10" lengthAdjust="spacing" textLength="47.7588" x="374.12" y="661.6788">completed</text><rect fill="#F1F1F1" height="40" rx="12.5" ry="12.5" style="stroke:#181818;stroke-width:0.5;" width="57.9688" x="585.02" y="751.2169"/><text fill="#000000" font-family="sans-serif" font-size="10" lengthAdjust="spacing" textLength="47.9688" x="590.02" y="774.6788">removable</text><g class="end_entity" data-qualified-name=".end." data-source-line="56" id="ent0025"><ellipse cx="392" cy="887.2169" fill="none" rx="11" ry="11" style="stroke:#222222;stroke-width:1;"/><ellipse cx="392" cy="887.2169" fill="#222222" rx="6" ry="6" style="stroke:#222222;stroke-width:1;"/></g><g class="entity" data-qualified-name="GMN2" data-source-line="63" id="ent0003"><path d="M375.64,249.2969 L375.64,267.7569 L341.19,271.7569 L375.64,275.7569 L375.64,294.2188 A0,0 0 0 0 375.64,294.2188 L604.3694,294.2188 A0,0 0 0 0 604.3694,294.2188 L604.3694,259.2969 L594.3694,249.2969 L375.64,249.2969 A0,0 0 0 0 375.64,249.2969" fill="#FEFFDD" style="stroke:#181818;stroke-width:0.5;"/><path d="M594.3694,249.2969 L594.3694,259.2969 L604.3694,259.2969 L594.3694,249.2969" fill="#FEFFDD" style="stroke:#181818;stroke-width:0.5;"/><text fill="#000000" font-family="sans-serif" font-size="10" lengthAdjust="spacing" textLength="195.2832" x="381.64" y="263.5791">accept/reject/setReceivePath are queued to</text><text fill="#000000" font-family="sans-serif" font-size="10" lengthAdjust="spacing" textLength="184.0576" x="381.64" y="275.2197">FileReceiverWorker's background thread.</text><text fill="#000000" font-family="sans-serif" font-size="10" lengthAdjust="spacing" textLength="207.7294" x="381.64" y="286.8604">transferToPersist &#32463; AppController &#24322;&#27493;&#33853;&#24211;&#12290;</text></g><!--link *start* to validating_request--><g class="link" data-entity-1="ent0002" data-entity-2="ent0003" data-link-type="dependency" data-source-line="43" id="lnk4"><path d="M609,63.6169 C609,80.0269 609,108.3769 609,130.0569" fill="none" id="*start*-to-validating_request" style="stroke:#181818;stroke-width:1;"/><polygon fill="#181818" points="609,136.0569,613,127.0569,609,131.0569,605,127.0569,609,136.0569" style="stroke:#181818;stroke-width:1;"/><text fill="#000000" font-family="sans-serif" font-size="10" lengthAdjust="spacing" textLength="134.707" x="610" y="103.5791">TCP connection + TransferReq</text></g><!--link validating_request to failed--><g class="link" data-entity-1="ent0003" data-entity-2="ent0005" data-link-type="dependency" data-source-line="44" id="lnk6"><path d="M655.41,164.3669 C741.89,178.8569 919,215.3069 919,270.7569 C919,270.7569 919,270.7569 919,546.2169 C919,628.5869 796.7717,649.4446 741.1817,654.8646" fill="none" id="validating_request-to-failed" style="stroke:#181818;stroke-width:1;"/><polygon fill="#181818" points="735.21,655.4469,744.5557,658.5546,740.1864,654.9617,743.7794,650.5924,735.21,655.4469" style="stroke:#181818;stroke-width:1;"/><text fill="#000000" font-family="sans-serif" font-size="10" lengthAdjust="spacing" textLength="164.4238" x="920" y="405.9991">invalid JSON / path / version / file list</text></g><!--link validating_request to waiting_confirm--><g class="link" data-entity-1="ent0003" data-entity-2="ent0007" data-link-type="dependency" data-source-line="45" id="lnk8"><path d="M562.72,174.2069 C512.35,192.6369 429.43,222.9869 358,249.2969 C352.56,251.2969 352.4573,251.3253 346.8073,253.4153" fill="none" id="validating_request-to-waiting_confirm" style="stroke:#181818;stroke-width:1;"/><polygon fill="#181818" points="341.18,255.4969,351.0087,256.126,345.8694,253.7622,348.2333,248.6229,341.18,255.4969" style="stroke:#181818;stroke-width:1;"/><text fill="#000000" font-family="sans-serif" font-size="10" lengthAdjust="spacing" textLength="122.7832" x="475.85" y="216.5791">request metadata accepted</text></g><!--link waiting_confirm to transferring--><g class="link" data-entity-1="ent0007" data-entity-2="ent0009" data-link-type="dependency" data-source-line="46" id="lnk10"><path d="M324.55,291.9869 C355.47,316.2069 403.5564,353.8772 434.5564,378.1572" fill="none" id="waiting_confirm-to-transferring" style="stroke:#181818;stroke-width:1;"/><polygon fill="#181818" points="439.28,381.8569,434.661,373.1583,435.3437,378.7738,429.7281,379.4565,439.28,381.8569" style="stroke:#181818;stroke-width:1;"/><text fill="#000000" font-family="sans-serif" font-size="10" lengthAdjust="spacing" textLength="70.2441" x="420.2242" y="334.4991">autoAcceptFiles</text><text fill="#000000" font-family="sans-serif" font-size="10" lengthAdjust="spacing" textLength="115.3125" x="397.69" y="346.1397">or acceptReceiveSession()</text></g><!--link waiting_confirm to rejected--><g class="link" data-entity-1="ent0007" data-entity-2="ent0011" data-link-type="dependency" data-source-line="47" id="lnk12"><path d="M258.75,277.0869 C222.75,282.7169 170.81,295.4869 135,324.2169 C91.34,359.2569 67.5607,417.1692 56.8307,449.1092" fill="none" id="waiting_confirm-to-rejected" style="stroke:#181818;stroke-width:1;"/><polygon fill="#181818" points="54.92,454.7969,61.5778,447.5392,56.5123,450.0572,53.9943,444.9916,54.92,454.7969" style="stroke:#181818;stroke-width:1;"/><text fill="#000000" font-family="sans-serif" font-size="10" lengthAdjust="spacing" textLength="99.0869" x="136" y="334.4991">rejectReceiveSession()</text><text fill="#000000" font-family="sans-serif" font-size="10" lengthAdjust="spacing" textLength="59.2529" x="155.917" y="346.1397">UserRejected</text></g><!--link waiting_confirm to cancelled--><g class="link" data-entity-1="ent0007" data-entity-2="ent0013" data-link-type="dependency" data-source-line="48" id="lnk14"><path d="M297.33,291.8469 C290.37,341.5669 272.5614,468.7448 265.5514,518.8448" fill="none" id="waiting_confirm-to-cancelled" style="stroke:#181818;stroke-width:1;"/><polygon fill="#181818" points="264.72,524.7869,269.9285,516.428,265.4129,519.8351,262.0057,515.3194,264.72,524.7869" style="stroke:#181818;stroke-width:1;"/><text fill="#000000" font-family="sans-serif" font-size="10" lengthAdjust="spacing" textLength="68.2227" x="285.78" y="405.9991">cancelSession()</text></g><!--link transferring to transferring--><g class="link" data-entity-1="ent0009" data-entity-2="ent0009" data-link-type="dependency" data-source-line="49" id="lnk15"><path d="M495.9,390.5669 C513.96,388.2869 530.68,392.1769 530.68,402.2169 C530.68,412.2569 519.9128,416.8984 501.8528,414.6184" fill="none" id="transferring-to-transferring" style="stroke:#181818;stroke-width:1;"/><polygon fill="#181818" points="495.9,413.8669,504.3281,418.9626,500.8606,414.4931,505.3301,411.0256,495.9,413.8669" style="stroke:#181818;stroke-width:1;"/><text fill="#000000" font-family="sans-serif" font-size="10" lengthAdjust="spacing" textLength="65.0342" x="540.3006" y="394.4991">validate chunk</text><text fill="#000000" font-family="sans-serif" font-size="10" lengthAdjust="spacing" textLength="39.1943" x="553.2205" y="406.1397">write file</text><text fill="#000000" font-family="sans-serif" font-size="10" lengthAdjust="spacing" textLength="72.2754" x="536.68" y="417.7804">update SHA-256</text></g><!--link transferring to verifying--><g class="link" data-entity-1="ent0009" data-entity-2="ent0016" data-link-type="dependency" data-source-line="50" id="lnk17"><path d="M469.07,422.5269 C476.15,449.5269 487.4173,492.4633 494.4673,519.3333" fill="none" id="transferring-to-verifying" style="stroke:#181818;stroke-width:1;"/><polygon fill="#181818" points="495.99,525.1369,497.575,515.4164,494.7211,520.3006,489.8369,517.4467,495.99,525.1369" style="stroke:#181818;stroke-width:1;"/><text fill="#000000" font-family="sans-serif" font-size="10" lengthAdjust="spacing" textLength="61.3721" x="488.98" y="478.9991">TransferDone</text></g><!--link verifying to completed--><g class="link" data-entity-1="ent0016" data-entity-2="ent0018" data-link-type="dependency" data-source-line="51" id="lnk19"><path d="M475.71,547.1669 C444.01,549.8769 390.83,559.7869 366,595.2169 C356.61,608.6069 362.0896,620.5921 373.0796,633.2121" fill="none" id="verifying-to-completed" style="stroke:#181818;stroke-width:1;"/><polygon fill="#181818" points="377.02,637.7369,374.126,628.3228,373.7364,633.9662,368.0929,633.5766,377.02,637.7369" style="stroke:#181818;stroke-width:1;"/><text fill="#000000" font-family="sans-serif" font-size="10" lengthAdjust="spacing" textLength="113.0322" x="367" y="605.4991">hash verified + ChunkAck</text></g><!--link verifying to failed--><g class="link" data-entity-1="ent0016" data-entity-2="ent0005" data-link-type="dependency" data-source-line="52" id="lnk20"><path d="M502.42,565.5969 C504.44,579.3269 509.32,597.1969 521,608.2169 C566.49,651.1269 638.5802,657.5935 678.6502,657.8835" fill="none" id="verifying-to-failed" style="stroke:#181818;stroke-width:1;"/><polygon fill="#181818" points="684.65,657.9269,675.6792,653.8618,679.6501,657.8907,675.6213,661.8616,684.65,657.9269" style="stroke:#181818;stroke-width:1;"/><text fill="#000000" font-family="sans-serif" font-size="10" lengthAdjust="spacing" textLength="155.4736" x="522" y="605.4991">Sha256Mismatch / DiskWriteFailed</text></g><!--link transferring to failed--><g class="link" data-entity-1="ent0009" data-entity-2="ent0005" data-link-type="dependency" data-source-line="53" id="lnk21"><path d="M496.08,417.2869 C515.35,426.5669 539.78,439.8169 559,455.2169 C623.64,506.9969 637.13,525.5969 682,595.2169 C690.64,608.6169 695.7423,619.5478 700.7323,632.1578" fill="none" id="transferring-to-failed" style="stroke:#181818;stroke-width:1;"/><polygon fill="#181818" points="702.94,637.7369,703.3478,627.8965,701.1002,633.0877,695.909,630.8401,702.94,637.7369" style="stroke:#181818;stroke-width:1;"/><text fill="#000000" font-family="sans-serif" font-size="10" lengthAdjust="spacing" textLength="160.8008" x="662.8" y="548.9991">timeout / disconnect / invalid frame</text></g><!--link transferring to cancelled--><g class="link" data-entity-1="ent0009" data-entity-2="ent0013" data-link-type="dependency" data-source-line="54" id="lnk22"><path d="M432.05,410.1569 C403.01,417.6469 360.07,431.7669 329,455.2169 C303.84,474.2069 286.5419,499.8903 275.1219,519.8303" fill="none" id="transferring-to-cancelled" style="stroke:#181818;stroke-width:1;"/><polygon fill="#181818" points="272.14,525.0369,280.0839,519.215,274.6249,520.6981,273.1418,515.2391,272.14,525.0369" style="stroke:#181818;stroke-width:1;"/><text fill="#000000" font-family="sans-serif" font-size="10" lengthAdjust="spacing" textLength="139.2773" x="330" y="478.9991">peer Cancel / local cancellation</text></g><!--link completed to removable--><g class="link" data-entity-1="ent0018" data-entity-2="ent0023" data-link-type="dependency" data-source-line="55" id="lnk24"><path d="M427.13,674.1869 C468.36,695.3669 537.9534,731.1344 579.3034,752.3844" fill="none" id="completed-to-removable" style="stroke:#181818;stroke-width:1;"/><polygon fill="#181818" points="584.64,755.1269,578.4635,747.4554,580.1929,752.8415,574.8069,754.5708,584.64,755.1269" style="stroke:#181818;stroke-width:1;"/><text fill="#000000" font-family="sans-serif" font-size="10" lengthAdjust="spacing" textLength="107.8223" x="513.48" y="718.4991">record may be removed</text></g><!--link removable to *end*--><g class="link" data-entity-1="ent0023" data-entity-2="ent0025" data-link-type="dependency" data-source-line="56" id="lnk26"><path d="M584.76,782.5269 C576.17,785.4469 566.74,788.5569 558,791.2169 C509.11,806.0969 490.13,793.7969 447,821.2169 C424.05,835.8069 408.7766,857.8677 400.2566,872.0077" fill="none" id="removable-to-*end*" style="stroke:#181818;stroke-width:1;"/><polygon fill="#181818" points="397.16,877.1469,405.231,871.5025,399.7405,872.8642,398.3788,867.3737,397.16,877.1469" style="stroke:#181818;stroke-width:1;"/><text fill="#000000" font-family="sans-serif" font-size="10" lengthAdjust="spacing" textLength="74.043" x="534.3428" y="831.4991">removeSession()</text><text fill="#000000" font-family="sans-serif" font-size="10" lengthAdjust="spacing" textLength="246.7285" x="448" y="843.1397">or clearFinishedSessions(deleteReceivedFiles, deviceId)</text></g><!--link completed to *end*--><g class="link" data-entity-1="ent0018" data-entity-2="ent0025" data-link-type="dependency" data-source-line="57" id="lnk27"><path d="M397.49,678.5669 C396.27,724.7769 393.3676,834.3389 392.4376,869.7389" fill="none" id="completed-to-*end*" style="stroke:#181818;stroke-width:1;"/><polygon fill="#181818" points="392.28,875.7369,396.515,866.845,392.4113,870.7386,388.5177,866.6349,392.28,875.7369" style="stroke:#181818;stroke-width:1;"/><text fill="#000000" font-family="sans-serif" font-size="10" lengthAdjust="spacing" textLength="136.1816" x="406.5" y="763.4991">removeSessionAndDeleteFile()</text><text fill="#000000" font-family="sans-serif" font-size="10" lengthAdjust="spacing" textLength="142.3779" x="403.4019" y="775.1397">only received, verified localPath</text><text fill="#000000" font-family="sans-serif" font-size="10" lengthAdjust="spacing" textLength="156.1816" x="396.5" y="786.7804">finalizeSession &#8594; transferToPersist</text></g><!--link failed to *end*--><g class="link" data-entity-1="ent0005" data-entity-2="ent0025" data-link-type="dependency" data-source-line="58" id="lnk28"><path d="M715.94,678.6869 C726.15,716.4669 742.01,800.0569 699,846.2169 C657.97,890.2669 459.688,888.0103 409.268,886.7203" fill="none" id="failed-to-*end*" style="stroke:#181818;stroke-width:1;"/><polygon fill="#181818" points="403.27,886.5669,412.1647,890.7958,408.2684,886.6948,412.3694,882.7984,403.27,886.5669" style="stroke:#181818;stroke-width:1;"/><text fill="#000000" font-family="sans-serif" font-size="10" lengthAdjust="spacing" textLength="156.1816" x="728.42" y="774.9991">finalizeSession &#8594; transferToPersist</text></g><!--link rejected to *end*--><g class="link" data-entity-1="ent0011" data-entity-2="ent0025" data-link-type="dependency" data-source-line="59" id="lnk29"><path d="M37.93,495.3469 C25.19,519.1969 6,561.6169 6,600.7169 C6,600.7169 6,600.7169 6,772.2169 C6,852.5769 311.5976,880.0974 374.8776,884.9574" fill="none" id="rejected-to-*end*" style="stroke:#181818;stroke-width:1;"/><polygon fill="#181818" points="380.86,885.4169,372.1927,880.7394,375.8747,885.034,371.5801,888.7159,380.86,885.4169" style="stroke:#181818;stroke-width:1;"/><text fill="#000000" font-family="sans-serif" font-size="10" lengthAdjust="spacing" textLength="156.1816" x="7" y="661.9991">finalizeSession &#8594; transferToPersist</text></g><!--link cancelled to *end*--><g class="link" data-entity-1="ent0013" data-entity-2="ent0025" data-link-type="dependency" data-source-line="60" id="lnk30"><path d="M251.65,565.5869 C235.44,598.6569 208.08,667.6169 230,721.2169 C262.51,800.7369 348.7798,859.4303 377.8798,877.5903" fill="none" id="cancelled-to-*end*" style="stroke:#181818;stroke-width:1;"/><polygon fill="#181818" points="382.97,880.7669,377.4525,872.6086,378.7282,878.1198,373.2171,879.3955,382.97,880.7669" style="stroke:#181818;stroke-width:1;"/><text fill="#000000" font-family="sans-serif" font-size="10" lengthAdjust="spacing" textLength="156.1816" x="231" y="718.4991">finalizeSession &#8594; transferToPersist</text></g><?plantuml-src bLGzRnD14EtlLqn70WdcGw58WMGviW09YEAW51YXpUvSRl7TxcLtpv5JXHGK5820AeWo9Q9B0O4V0yH9nrzWTk_i2xQHI7MtE_FUlFbQ9rsAS7C9JbyU3VUUdtpu_lluOFZgSFZ-wDVnmTddZr4Y1G9ckHk0GCkDp9tKAh8zgN9cM4QtCIjIrzRATUGkmlLhKVJuyXDONBmDVPPAmPnKMqyDRXTe7Ip3UciLk5OAkMU2Ax1kcB8ncZNSZcOWF57CP8g2m5853xZNUVW06f0pbz2dZyPwhWR4v0UfjEvVJ3jCXZjI44kJ4UN8cg5Z1630ECVSeOWcVJtULM8D6GZC2gURmRzDaMrNQLFXrv2Zx6C7hPSsDp-JpU0pAaF8hFoTH7NL8-ihKxhDvE1CSKpByfJ_TSo_rCwGNnK9WIU5wdNLZf5qy4NigY8FbiwTvkADfLlJL5Hq6GzAdb4BLxJ2g3O4UJhBKonpJ9XDIfoaynLe-QXDtfk0ZBlTIHY5lYzjnXptZLwHjhVXDRQ3oxIeCTJ937NX22EahSQD3gFvYMbqSHf-lfOvee5Mk21WgZbBHtOMTg3Eh6nbfljiayRFzv9h8o1Z0zZ4qa9YQm_lxtTakRATQpVD3q-HcRPKqYOeAfET4-XZLVCXmhGjqFBr9SUxOdv2p0pofX8hWS93GoIL3hpImBTGjoLakagBrQKPKrIjtH45_7ZnTZn1wthLRnrjMbNpEkx_mSQpVr5WtQIB8YEbQQADt4eSw7ZoBOZAnMsKmXeMHzleYm7C8D13KL1OfoDVnCfgDhJfeRbaOPFntfRHXIANn20JLwCf3N3wzJKqyxn5xwNHb8M1a-FzuQV3ipVVJhwy-xct7o7XlT0_?></g></svg>